<svg width="28" height="28" viewBox="0 0 28 28" fill="none" xmlns="http://www.w3.org/2000/svg">
<g clip-path="url(#clip0_7096_51845)">
<path d="M9.50879 10.6523C9.50879 13.2693 11.6379 15.3984 14.2549 15.3984C16.8719 15.3984 19.001 13.2693 19.001 10.6523C19.001 8.03535 16.8719 5.90625 14.2549 5.90625C11.6379 5.90625 9.50879 8.03535 9.50879 10.6523ZM17.9463 10.6523C17.9463 12.6878 16.2903 14.3438 14.2549 14.3438C12.2194 14.3438 10.5635 12.6878 10.5635 10.6523C10.5635 8.6169 12.2194 6.96094 14.2549 6.96094C16.2903 6.96094 17.9463 8.6169 17.9463 10.6523Z" fill="black"/>
<path d="M23.958 5.69531C24.2493 5.69531 24.4854 5.45921 24.4854 5.16797C24.4854 4.87672 24.2493 4.64062 23.958 4.64062C23.6668 4.64062 23.4307 4.87672 23.4307 5.16797C23.4307 5.45921 23.6668 5.69531 23.958 5.69531Z" fill="black"/>
<path d="M14.2549 27.3203C21.7381 27.3203 27.7549 21.2597 27.7549 13.8203C27.7549 11.3434 27.0796 8.92213 25.8021 6.81814C25.6509 6.56923 25.3267 6.48997 25.0776 6.64105C24.8287 6.79224 24.7494 7.11656 24.9006 7.36552C26.0779 9.30451 26.7002 11.5365 26.7002 13.8203C26.7002 17.4288 25.183 20.7758 22.5091 23.1376C21.6951 19.298 18.2905 16.457 14.2549 16.457C10.2192 16.457 6.81433 19.2984 6.00116 23.1381C3.32695 20.776 1.80957 17.4289 1.80957 13.8203C1.80957 6.95794 7.39251 1.375 14.2549 1.375C17.0492 1.375 19.6882 2.27755 21.8864 3.98514C22.1164 4.1638 22.4477 4.12214 22.6264 3.89217C22.805 3.6622 22.7634 3.33087 22.5334 3.1522C20.1484 1.29954 17.2857 0.320312 14.2549 0.320312C10.646 0.320312 7.25503 1.72389 4.70664 4.27244C2.1583 6.82088 0.754883 10.2117 0.754883 13.8203C0.754883 21.2785 6.79081 27.3203 14.2549 27.3203ZM14.2549 17.5117C17.983 17.5117 21.0777 20.2349 21.5703 23.8929C19.4369 25.4461 16.9142 26.2656 14.2549 26.2656C11.5958 26.2656 9.07341 25.446 6.94004 23.8928C7.43195 20.2348 10.5263 17.5117 14.2549 17.5117Z" fill="black"/>
</g>
<defs>
<clipPath id="clip0_7096_51845">
<rect width="27" height="27" fill="white" transform="translate(0.754883 0.320312)"/>
</clipPath>
</defs>
</svg>
