<svg width="114" height="103" viewBox="0 0 114 103" fill="none" xmlns="http://www.w3.org/2000/svg">
<path d="M82.0312 134.308C45.7577 134.308 16.3359 104.886 16.3359 68.6127C16.3359 32.3393 45.7577 2.91748 82.0312 2.91748C118.305 2.91748 147.726 32.3393 147.726 68.6127C147.726 104.752 118.305 134.308 82.0312 134.308ZM82.0312 16.0834C53.1468 16.0834 29.6362 39.594 29.6362 68.4784C29.6362 97.3628 53.1468 120.873 82.0312 120.873C110.916 120.873 134.426 97.3628 134.426 68.4784C134.426 39.594 110.916 16.0834 82.0312 16.0834Z" fill="#E77F24"/>
<path d="M76.399 135.677C39.325 135.677 9.25391 105.605 9.25391 68.5314C9.25391 31.4574 39.325 1.38623 76.399 1.38623C113.473 1.38623 143.544 31.4574 143.544 68.5314C143.544 105.468 113.473 135.677 76.399 135.677ZM76.399 14.8427C46.8772 14.8427 22.8477 38.8722 22.8477 68.3941C22.8477 97.916 46.8772 121.945 76.399 121.945C105.921 121.945 129.95 97.916 129.95 68.3941C129.95 38.8722 105.921 14.8427 76.399 14.8427Z" fill="#E5A130"/>
<path d="M122.996 39.7443C120.153 33.7857 116.361 28.2335 111.892 23.3583C109.861 21.0561 107.558 19.0248 105.121 17.1289C96.8602 10.4933 87.1098 5.88892 76.2761 3.99302C72.6197 3.31592 68.8279 2.90967 64.9007 2.90967C29.4203 2.90967 0.710938 31.7544 0.710938 67.0994C0.710938 74.683 2.06514 82.1312 4.50272 88.9023C8.1591 99.0589 14.3885 108.132 22.3784 115.174C24.6805 117.205 27.1181 119.101 29.6911 120.726C35.108 124.383 41.2019 127.091 47.7022 128.987C53.2544 130.477 59.0776 131.425 65.0361 131.425C100.517 131.425 129.226 102.58 129.226 67.2348C129.09 57.3491 126.924 48.005 122.996 39.7443ZM64.9007 118.424C62.1923 118.424 59.6192 118.153 57.0462 117.882C50.1397 116.799 43.7749 114.361 38.0872 110.841C35.5142 109.215 32.9412 107.32 30.7745 105.288C22.6492 97.9755 16.8261 88.0897 14.6593 76.9852C13.9822 73.735 13.7114 70.4849 13.7114 67.0994C13.7114 38.7963 36.733 15.7747 65.0361 15.7747C65.4424 15.7747 65.9841 15.7747 66.3903 15.7747C77.9011 16.0455 88.464 20.2436 96.9956 26.8792C99.4332 28.7751 101.6 30.9419 103.631 33.2441C108.1 38.2547 111.486 44.2132 113.788 50.7134C115.548 55.8594 116.496 61.2763 116.496 66.964C116.225 95.4025 93.2038 118.424 64.9007 118.424Z" fill="#FBE79C"/>
<path d="M72.7646 129.712C107.131 129.712 134.99 101.853 134.99 67.4868C134.99 33.1206 107.131 5.26123 72.7646 5.26123C38.3984 5.26123 10.5391 33.1206 10.5391 67.4868C10.5391 101.853 38.3984 129.712 72.7646 129.712Z" fill="#FCC037"/>
<path d="M51.5597 122.974C23.4357 107.992 12.7906 73.1652 27.7726 45.1725C42.7545 17.0485 77.581 6.40338 105.574 21.3854" stroke="#D39A37" stroke-width="5"/>
<path d="M34.5391 115.364C58.5146 134.749 93.0259 124.516 112.41 100.54C131.795 76.5644 131.55 39.9114 107.575 20.5269" stroke="#FBE79C" stroke-width="6"/>
<path d="M43.5584 120.564C16.2679 102.631 8.67939 66.0921 26.5993 38.9358C44.5316 11.6453 81.0709 4.05675 108.227 21.9767" stroke="#E77F24" stroke-width="6"/>
<path d="M132.27 39.5438C129.291 33.3144 125.364 27.4913 120.624 22.4807C118.457 20.1786 116.02 17.8764 113.582 15.8451C105.05 8.93859 94.7584 4.06345 83.383 2.03213C79.4558 1.35502 75.5285 0.94873 71.4659 0.94873C34.3604 0.94873 4.29688 31.1477 4.29688 68.1178C4.29688 76.1076 5.65108 83.8266 8.22409 90.8685C12.0159 101.567 18.5161 110.911 26.9122 118.359C29.3498 120.526 31.9228 122.422 34.6313 124.182C40.319 127.974 46.6838 130.953 53.4549 132.714C59.278 134.339 65.372 135.151 71.6013 135.151C108.707 135.151 138.77 104.952 138.77 67.9823C138.635 57.9612 136.333 48.2108 132.27 39.5438ZM71.4659 121.88C68.6221 121.88 65.9136 121.609 63.2052 121.203C56.0279 120.12 49.2568 117.547 43.2983 113.89C40.5898 112.13 38.0168 110.234 35.5792 108.067C27.0477 100.483 20.9537 90.056 18.787 78.4098C18.1099 75.0243 17.839 71.6387 17.839 68.1178C17.839 38.4605 41.944 14.4909 71.4659 14.4909C71.8722 14.4909 72.4139 14.4909 72.8201 14.4909C84.8726 14.7617 95.9772 19.0952 104.78 26.1371C107.353 28.1684 109.655 30.3352 111.821 32.7728C116.426 38.0542 120.082 44.2836 122.384 51.0547C124.145 56.4715 125.093 62.1592 125.093 68.1178C125.093 97.7751 100.988 121.88 71.4659 121.88Z" fill="#FCC037"/>
<path d="M35.5804 108.067L26.778 118.359C18.5173 111.046 12.0171 101.567 8.08984 90.8684L18.6527 78.4097C21.0903 90.1913 27.0488 100.483 35.5804 108.067Z" fill="#FBDA7B"/>
<path d="M113.586 15.8476L104.784 26.1397C95.9813 19.0978 84.8767 14.7643 72.8242 14.4934L83.3871 2.03467C94.6271 4.06599 104.919 8.94114 113.586 15.8476Z" fill="#FBDA7B"/>
<path d="M132.273 39.5431L122.387 51.1893C120.085 44.4183 116.429 38.1889 111.824 32.9074L120.627 22.48C125.231 27.4906 129.158 33.1783 132.273 39.5431Z" fill="#FBDA7B"/>
<path d="M62.3896 77.2516C59.3265 77.698 56.8874 78.958 55.1861 80.9564C53.9633 82.3927 53.0009 84.3526 52.5318 86.9654C54.6847 86.6957 56.4183 88.5221 56.221 90.5645C56.14 91.4022 56.1332 92.3077 56.2142 93.2831C58.2168 92.492 60.3468 93.8101 60.6773 95.8288C60.8158 96.6755 61.0472 97.5708 61.3862 98.5135C65.3761 95.2934 70.0318 92.6748 74.1863 90.338L74.3659 90.237L75.8367 92.8518L74.3659 90.237C77.5856 88.4259 80.4835 86.7919 82.847 85.1039L82.8472 85.1038C83.0066 84.9899 83.1728 84.8927 83.3428 84.8115L83.3431 84.8113C83.657 84.6614 83.9395 84.5018 84.1936 84.3333C87.2879 82.2796 88.9693 80.1068 89.7999 78.0949C90.6292 76.086 90.6971 74.0295 90.2226 72.0509C89.2351 67.9339 85.9676 64.4392 83.0346 63.2242C81.1533 62.4448 80.9304 60.5887 80.9752 59.8407C81.0193 59.104 81.4721 57.206 83.5289 56.7085C86.1633 56.0713 88.2686 54.7592 89.7504 52.7851C90.7862 51.4052 91.5991 49.5918 92.0182 47.2534C89.8608 47.517 88.1305 45.6771 88.342 43.6311C88.4299 42.7802 88.4416 41.8588 88.3627 40.8644C88.2788 40.9016 88.1948 40.9385 88.1107 40.9751L88.107 40.9767C87.9671 41.0374 87.8256 41.0866 87.6834 41.1248C85.9783 41.5922 84.1681 40.4747 83.9106 38.6362L83.9105 38.6358C83.7799 37.7025 83.5355 36.7081 83.1565 35.6544C79.1679 38.8729 74.5142 41.4894 70.3611 43.8245L70.1816 43.9255C66.8327 45.8085 63.8355 47.4986 61.4299 49.2522L61.4298 49.2523C61.2905 49.3539 61.1459 49.4425 60.9982 49.5188L60.9982 49.5188C60.7666 49.6382 60.5534 49.7633 60.3571 49.8937L60.3549 49.8952C57.0452 52.09 55.3479 54.4223 54.5804 56.5591C53.8111 58.7009 53.8824 60.905 54.5535 63.0042C55.232 65.1265 56.5124 67.0909 58.0545 68.6078C59.6198 70.1476 61.2736 71.053 62.576 71.3285C64.0199 71.6326 64.9595 72.9005 64.9652 74.2608L62.3896 77.2516ZM62.3896 77.2516C63.8516 77.0385 64.9713 75.7819 64.9652 74.2614L62.3896 77.2516ZM86.8864 38.2278C86.8839 38.226 86.882 38.2233 86.8815 38.2199C86.8796 38.2061 86.8777 38.1924 86.8757 38.1786C86.8732 38.1614 86.8708 38.1443 86.8683 38.1271L86.5103 37.3016L85.7144 35.4744C85.7154 35.474 85.7165 35.4735 85.7176 35.473L85.7166 35.4709L86.9156 38.2234C86.9146 38.2239 86.9136 38.2243 86.9125 38.2248C86.912 38.225 86.9114 38.2247 86.9113 38.2241C86.9112 38.2235 86.9106 38.2231 86.91 38.2234L86.9069 38.2247M86.8864 38.2278L83.9438 38.6648C83.9438 38.665 83.9439 38.6652 83.9439 38.6655L86.8864 38.2278ZM86.8864 38.2278C86.8895 38.2299 86.8936 38.2305 86.8974 38.2288L86.9069 38.2247M86.9069 38.2247L86.9104 38.2242L86.9069 38.2247ZM86.4722 37.2102L86.8673 38.1206L86.4722 37.2102ZM86.4722 37.2102L85.7209 35.4716L86.4722 37.2102ZM61.5255 71.3141L61.5243 71.3143L61.5255 71.3141ZM86.8682 38.1266C86.8679 38.1248 86.8677 38.123 86.8674 38.1212L86.674 37.6773L86.8682 38.1266ZM89.8761 37.7659C89.8546 37.627 89.8241 37.4921 89.7853 37.3617C89.7852 37.3611 89.7851 37.3604 89.785 37.3598C89.8239 37.4907 89.8545 37.6261 89.8761 37.7659ZM89.6554 37.0083L89.656 37.0082L89.6554 37.0083ZM89.8787 37.7834L89.8786 37.7827L89.8787 37.7834Z" stroke="#E77F24" stroke-width="6"/>
<path d="M60.308 71.0554L60.3089 71.0556C61.7502 71.3604 62.6899 72.6265 62.6956 73.9874L60.308 71.0554ZM60.308 71.0554C59.0054 70.7803 57.3508 69.8748 55.7849 68.3344C54.2429 66.8174 52.9624 64.853 52.284 62.7308C51.6129 60.6316 51.5415 58.4275 52.3109 56.2856C53.0784 54.1489 54.7757 51.8166 58.0854 49.6217L58.0876 49.6203C58.2839 49.4899 58.4971 49.3648 58.7287 49.2453L58.7287 49.2453M60.308 71.0554L58.7287 49.2453M60.1213 76.978L60.12 76.9782C57.057 77.4245 54.6179 78.6846 52.9165 80.683C51.6937 82.1192 50.7313 84.0791 50.2622 86.692C52.4151 86.4222 54.1488 88.2485 53.9514 90.291C53.8705 91.1287 53.8636 92.0342 53.9447 93.0097C55.9473 92.2186 58.0773 93.5366 58.4077 95.5554C58.5463 96.402 58.7777 97.2974 59.1167 98.2401C63.1066 95.02 67.7622 92.4014 71.9168 90.0646L72.0964 89.9636C75.316 88.1525 78.2138 86.5186 80.5772 84.8307L60.1213 76.978ZM60.1213 76.978C61.5809 76.7646 62.7018 75.5099 62.6956 73.988L59.6957 74C59.6957 74.0048 59.6921 74.0088 59.6874 74.0095C59.6863 74.0097 59.6852 74.0098 59.6841 74.01M60.1213 76.978L56.7765 74.6877C57.7016 74.3828 58.6736 74.1574 59.6841 74.01M59.6841 74.01L59.0675 76.9258M59.6841 74.01L59.0683 76.9259C59.0681 76.9259 59.0678 76.9258 59.0675 76.9258M59.0675 76.9258C59.0661 76.9255 59.0647 76.9252 59.0633 76.9249C59.0647 76.9252 59.0661 76.9255 59.0675 76.9258ZM80.887 35.3809C76.8984 38.5995 72.2447 41.216 68.0916 43.551L67.912 43.652C64.5632 45.5351 61.566 47.2251 59.1605 48.9787L80.887 35.3809ZM80.887 35.3809C81.2659 36.4346 81.5103 37.4291 81.641 38.3624L81.641 38.3628C81.896 40.1822 83.672 41.2963 85.3622 40.865C85.5228 40.8248 85.6829 40.7706 85.8411 40.7017C85.9252 40.665 86.0092 40.6281 86.0931 40.591C86.1721 41.5854 86.1604 42.5068 86.0724 43.3576C85.861 45.4037 87.5913 47.2436 89.7487 46.98C89.3296 49.3183 88.5167 51.1318 87.4809 52.5117C85.9991 54.4858 83.8938 55.7979 81.2593 56.4351C79.2026 56.9326 78.7498 58.8305 78.7057 59.5672C78.6609 60.3153 78.8838 62.1714 80.765 62.9507L81.9132 60.1792L80.765 62.9508C83.6981 64.1658 86.9656 67.6605 87.953 71.7774C88.4276 73.756 88.3597 75.8126 87.5303 77.8215C86.6997 79.8334 85.0183 82.0062 81.9241 84.0599C81.67 84.2283 81.3875 84.3879 81.0738 84.5378C81.0737 84.5378 81.0737 84.5378 81.0736 84.5379L80.887 35.3809ZM84.6408 37.9508L84.6373 37.9513L84.6408 37.9508ZM84.6408 37.9508L85.8268 40.7054L85.8307 40.7037L84.6408 37.9508ZM58.7287 49.2453C58.8762 49.1692 59.0208 49.0806 59.1604 48.9788L58.7287 49.2453ZM82.6568 40.2009C82.1577 39.7627 81.7975 39.154 81.6805 38.4317C81.7972 39.152 82.1572 39.7616 82.6568 40.2009Z" stroke="#F8AE11" stroke-width="6"/>
</svg>
