<svg width="29" height="28" viewBox="0 0 29 28" fill="none" xmlns="http://www.w3.org/2000/svg">
<path d="M11.974 9.36005H2.6921C2.23077 9.35964 1.78842 9.1763 1.46206 8.85023C1.13571 8.52416 0.95198 8.08197 0.951172 7.62064L0.951172 1.81906C0.951576 1.35746 1.13513 0.91488 1.46153 0.588479C1.78793 0.262078 2.2305 0.0785294 2.6921 0.078125L11.974 0.078125C12.4356 0.0785294 12.8782 0.262078 13.2046 0.588479C13.531 0.91488 13.7146 1.35746 13.715 1.81906V7.62217C13.7137 8.08324 13.5298 8.52503 13.2035 8.85077C12.8772 9.17651 12.4351 9.35964 11.974 9.36005ZM2.6921 1.23875C2.53832 1.23915 2.39095 1.30042 2.28221 1.40916C2.17347 1.5179 2.1122 1.66527 2.11179 1.81906V7.62217C2.1122 7.77595 2.17347 7.92332 2.28221 8.03206C2.39095 8.14081 2.53832 8.20208 2.6921 8.20248H11.974C12.1278 8.20208 12.2752 8.14081 12.3839 8.03206C12.4927 7.92332 12.5539 7.77595 12.5543 7.62217V1.81906C12.5539 1.66527 12.4927 1.5179 12.3839 1.40916C12.2752 1.30042 12.1278 1.23915 11.974 1.23875H2.6921Z" fill="black" stroke="black" stroke-width="0.1"/>
<path d="M11.974 27.9238H2.6921C2.2313 27.9234 1.78941 27.7405 1.46314 27.4151C1.13687 27.0897 0.952787 26.6483 0.951172 26.1875L0.951172 13.4206C0.951576 12.959 1.13513 12.5164 1.46153 12.19C1.78793 11.8636 2.2305 11.6801 2.6921 11.6797H11.974C12.4356 11.6801 12.8782 11.8636 13.2046 12.19C13.531 12.5164 13.7146 12.959 13.715 13.4206V26.1875C13.7133 26.6483 13.5293 27.0897 13.203 27.4151C12.8767 27.7405 12.4348 27.9234 11.974 27.9238ZM2.6921 12.8403C2.53832 12.8407 2.39095 12.902 2.28221 13.0107C2.17347 13.1195 2.1122 13.2668 2.11179 13.4206V26.1875C2.1122 26.3412 2.17347 26.4886 2.28221 26.5974C2.39095 26.7061 2.53832 26.7674 2.6921 26.7678H11.974C12.1278 26.7674 12.2752 26.7061 12.3839 26.5974C12.4927 26.4886 12.5539 26.3412 12.5543 26.1875V13.4206C12.5539 13.2668 12.4927 13.1195 12.3839 13.0107C12.2752 12.902 12.1278 12.8407 11.974 12.8403H2.6921Z" fill="black" stroke="black" stroke-width="0.1"/>
<path d="M27.0575 27.9225H17.7756C17.3143 27.9221 16.8719 27.7388 16.5456 27.4127C16.2192 27.0867 16.0355 26.6445 16.0347 26.1831V20.38C16.0355 19.9187 16.2192 19.4765 16.5456 19.1504C16.8719 18.8244 17.3143 18.641 17.7756 18.6406H27.0575C27.5191 18.641 27.9617 18.8246 28.2881 19.151C28.6145 19.4774 28.798 19.92 28.7985 20.3816V26.1847C28.7972 26.6457 28.6133 27.0875 28.287 27.4133C27.9607 27.739 27.5186 27.9221 27.0575 27.9225ZM17.7756 19.8012C17.6218 19.8017 17.4744 19.8629 17.3657 19.9717C17.257 20.0804 17.1957 20.2278 17.1953 20.3816V26.1847C17.1957 26.3385 17.257 26.4858 17.3657 26.5946C17.4744 26.7033 17.6218 26.7646 17.7756 26.765H27.0575C27.2113 26.7646 27.3587 26.7033 27.4674 26.5946C27.5762 26.4858 27.6374 26.3385 27.6378 26.1847V20.3816C27.6374 20.2278 27.5762 20.0804 27.4674 19.9717C27.3587 19.8629 27.2113 19.8017 27.0575 19.8012H17.7756Z" fill="black" stroke="black" stroke-width="0.1"/>
<path d="M27.0575 16.3222H17.7756C17.3148 16.3218 16.8729 16.1389 16.5466 15.8135C16.2204 15.4881 16.0363 15.0467 16.0347 14.5859V1.81906C16.0351 1.35746 16.2186 0.91488 16.545 0.588479C16.8714 0.262078 17.314 0.0785294 17.7756 0.078125L27.0575 0.078125C27.5191 0.0785294 27.9617 0.262078 28.2881 0.588479C28.6145 0.91488 28.798 1.35746 28.7985 1.81906V14.5859C28.7968 15.0467 28.6128 15.4881 28.2865 15.8135C27.9602 16.1389 27.5183 16.3218 27.0575 16.3222ZM17.7756 1.23875C17.6218 1.23915 17.4744 1.30042 17.3657 1.40916C17.257 1.5179 17.1957 1.66527 17.1953 1.81906V14.5859C17.1957 14.7397 17.257 14.8871 17.3657 14.9958C17.4744 15.1045 17.6218 15.1658 17.7756 15.1662H27.0575C27.2113 15.1658 27.3587 15.1045 27.4674 14.9958C27.5762 14.8871 27.6374 14.7397 27.6378 14.5859V1.81906C27.6374 1.66527 27.5762 1.5179 27.4674 1.40916C27.3587 1.30042 27.2113 1.23915 27.0575 1.23875H17.7756Z" fill="black" stroke="black" stroke-width="0.1"/>
</svg>
