<svg width="132" height="124" viewBox="0 0 132 124" fill="none" xmlns="http://www.w3.org/2000/svg">
<circle cx="70.1375" cy="61.8216" r="61.431" fill="#F4F7F7"/>
<path d="M12.5912 61.6729L13.2841 71.4375L4.48124 67.1552L12.5912 61.6729Z" stroke="#73314F"/>
<circle cx="119.828" cy="23.8671" r="4.19536" stroke="#73314F"/>
<path d="M120.037 25.7289L128.251 30.7955L119.756 35.3755L120.037 25.7289Z" fill="#73314F"/>
<path d="M123.743 86.4706L125.011 89.8978L128.439 91.1659L125.011 92.4341L123.743 95.8613L122.475 92.4341L119.048 91.1659L122.475 89.8978L123.743 86.4706Z" fill="#275C61"/>
<path d="M84.1211 94.0781H58.0273" stroke="#73314F" stroke-linecap="round" stroke-linejoin="round"/>
<path d="M49.3665 53.058L44.6453 48.9191" stroke="#73314F" stroke-width="1.5" stroke-linecap="round" stroke-linejoin="round"/>
<path d="M52.182 50.3372L52.1776 46.3942" stroke="#73314F" stroke-width="1.5" stroke-linecap="round" stroke-linejoin="round"/>
<path d="M48.0256 56.1797L44.0826 56.163" stroke="#73314F" stroke-width="1.5" stroke-linecap="round" stroke-linejoin="round"/>
<path d="M71.0121 33.9904C74.9991 33.9904 77.527 36.5935 79.0846 40.0093C80.6447 43.4306 81.1714 47.5616 81.1714 50.3208H82.1714C82.1714 47.4699 81.6322 43.1857 79.9945 39.5944C78.3543 35.9975 75.5526 32.9904 71.0121 32.9904V33.9904ZM71.0121 32.9904C66.4717 32.9904 63.67 35.9975 62.0298 39.5944C60.3921 43.1858 59.8529 47.4699 59.8529 50.3208H60.8529C60.8529 47.5616 61.3796 43.4306 62.9397 40.0093C64.4973 36.5935 67.0252 33.9904 71.0121 33.9904V32.9904Z" fill="#292929"/>
<path d="M71.0119 32.3071C75.6862 32.3071 78.6313 35.2084 80.435 38.966C82.2442 42.7353 82.8542 47.2837 82.8542 50.3206H83.8542C83.8542 47.1863 83.23 42.478 81.3365 38.5333C79.4375 34.577 76.2115 31.3071 71.0119 31.3071V32.3071ZM71.0119 31.3071C65.8123 31.3071 62.5863 34.577 60.6873 38.5333C58.7939 42.478 58.1696 47.1863 58.1696 50.3206H59.1696C59.1696 47.2837 59.7796 42.7353 61.5888 38.966C63.3925 35.2084 66.3376 32.3071 71.0119 32.3071V31.3071Z" fill="#292929"/>
<path fill-rule="evenodd" clip-rule="evenodd" d="M58.3758 51.3462C54.1709 51.3462 50.7623 54.7549 50.7623 58.9597V79.0847C50.7623 83.2895 54.1709 86.6982 58.3758 86.6982H83.766C87.9708 86.6982 91.3795 83.2895 91.3795 79.0847V58.9597C91.3795 54.7549 87.9708 51.3462 83.766 51.3462H58.3758ZM74.8247 64.8859C74.8247 66.3455 73.9931 67.6109 72.7779 68.2343L74.6611 75.5389C74.744 75.8601 74.5014 76.1731 74.1697 76.1731H67.958C67.6262 76.1731 67.3837 75.8601 67.4665 75.5389L69.3497 68.2343C68.1345 67.6109 67.303 66.3455 67.303 64.8859C67.303 62.8088 68.9868 61.125 71.0638 61.125C73.1409 61.125 74.8247 62.8088 74.8247 64.8859Z" fill="url(#paint0_linear_379_719)"/>
<defs>
<linearGradient id="paint0_linear_379_719" x1="60.9376" y1="59.7309" x2="72.4629" y2="86.1029" gradientUnits="userSpaceOnUse">
<stop offset="0.161458" stop-color="#73314F"/>
<stop offset="1" stop-color="#275C61"/>
</linearGradient>
</defs>
</svg>
