<svg width="294" height="221" viewBox="0 0 294 221" fill="none" xmlns="http://www.w3.org/2000/svg">
<path d="M108.945 156.027C107.514 158.602 107.15 161.512 106.711 164.317C105.545 171.758 104.723 179.259 105.185 186.812C105.569 193.097 105.752 199.403 106.755 205.64C107.109 207.836 107.057 207.84 104.924 208.126C104.757 208.176 104.605 208.269 104.485 208.396C103.272 209.416 101.616 208.968 101 207.406C99.1689 202.758 98.1851 197.886 97.2992 192.996C95.7346 184.361 95.7415 175.659 96.6494 166.978C97.1944 161.713 98.0815 156.488 99.3051 151.338C101.339 142.823 103.627 134.405 108.035 126.741C113.789 116.648 121.493 107.802 130.697 100.72C139.353 94.0545 149.111 89.092 158.015 82.866C175.863 70.3876 186.135 53.7277 184.202 31.1154C183.799 26.422 182.777 21.783 182.099 17.1087C181.829 15.2442 182.22 13.5718 183.996 12.5034C185.556 11.5651 187.736 12.1367 189.85 13.86C192.199 15.7788 193.377 18.4067 194.266 21.1398C196.239 27.0519 197.447 33.1928 197.862 39.4123C198.704 53.4923 194.465 65.6843 184.958 76.189C177.032 84.9461 167.6 91.4504 157.062 96.591C149.633 100.215 142.965 105.09 136.323 109.982C131.23 113.732 127.057 118.409 123.078 123.23C120.893 125.838 119.137 128.777 117.875 131.938C117.701 132.279 117.49 132.599 117.246 132.894C116.55 132.686 117.382 132.19 116.953 131.934C114.653 135.072 113.736 138.85 112.155 142.315C111.846 142.993 111.786 142.724 110.864 143.066C110 143.387 109.508 144.45 109.852 145.699C110.477 145.2 110.275 144.331 111.294 143.945C111.29 145.822 110.617 147.407 110.261 149.035C109.788 151.199 108.813 153.258 108.96 155.544L108.945 156.027ZM114.203 122.086C104.089 133.467 96.4843 165.609 98.3174 180.606C99.3018 170.26 100.279 160.192 102.72 150.35C105.191 140.389 108.642 130.811 114.203 122.086ZM171.195 75.9385C174.449 73.1215 177.502 70.1346 179.383 66.1595C176.681 69.442 173.844 72.6125 171.195 75.9385ZM187.391 71.2258C189.136 69.5991 190.455 67.5683 191.232 65.3118L187.391 71.2258ZM98.9828 191.634C98.8675 193.039 99.2659 194.332 99.7721 195.79C101.397 193.891 98.6506 193.08 98.9828 191.634Z" fill="white"/>
<path d="M112.636 72.5811C110.935 72.5811 109.233 72.6222 107.534 72.5661C106.478 72.4767 105.479 72.0458 104.689 71.3385C104.414 71.1515 104.202 70.885 104.082 70.5745C103.963 70.264 103.94 69.9244 104.018 69.6009C104.264 68.6446 104.815 69.3075 105.324 69.2896C115.168 68.957 124.891 67.4563 134.635 66.155C136.907 65.8936 139.194 65.7833 141.48 65.825C142.194 65.825 143.32 65.675 143.383 66.9921C143.435 68.1119 142.65 68.4367 141.796 68.6688C137.361 69.8726 132.795 70.3518 128.273 71.0466C123.095 71.8434 117.866 72.1932 112.636 72.5811Z" fill="white"/>
<path d="M163.651 50.6467C162.589 50.3934 161.427 49.8316 160.792 48.7283C157.705 43.3991 154.904 37.9091 152.399 32.2819C151.743 30.795 152.276 31.0719 153.705 30.5219C157.198 29.1813 158.01 31.9548 159.429 33.7397C161.9 36.8961 163.818 40.4491 165.103 44.2477C165.448 45.2377 165.832 46.2156 166.22 47.1902C167.294 49.8907 166.869 50.514 163.651 50.6467Z" fill="white"/>
<path d="M155.479 56.2662C152.691 57.925 150.479 56.4909 148.118 55.4107C143.686 53.3834 139.757 50.5495 135.687 47.9396C134.947 47.4655 133.733 46.9199 134.069 46.0043C134.399 45.1071 135.728 45.2926 136.66 45.2735C138.038 45.2446 139.154 46.0802 140.262 46.7138C144.914 49.3633 149.501 52.1232 154.101 54.86C154.644 55.183 155.249 55.4885 155.479 56.2662Z" fill="white"/>
</svg>