<svg width="161" height="99" viewBox="0 0 161 99" fill="none" xmlns="http://www.w3.org/2000/svg">
<g opacity="0.3">
<path d="M64.4461 56.0701C62.5043 57.4117 60.5953 58.8136 58.6059 60.0682C57.6975 60.641 56.4672 61.4718 55.803 60.439C55.0259 59.2288 55.6726 57.7523 57.083 56.7691C62.463 53.0188 67.3034 48.6882 72.0557 44.2394C77.3194 39.312 82.1775 34.0528 86.1824 28.4414C89.4344 23.8849 92.186 19.0315 94.4548 14.1103C99.137 3.95415 102.162 -6.22246 104.663 -16.4191C104.86 -17.2229 104.886 -18.0559 105.592 -18.8183C105.898 -19.1485 106.155 -19.6173 106.71 -19.5632C107.229 -19.5124 107.274 -19.1103 107.234 -18.7144C107.159 -17.7471 107.026 -16.7687 106.834 -15.7837C104.304 -4.13788 101.063 7.50117 95.3073 19.0837C88.2747 33.2347 78.0514 45.5949 64.4461 56.0701Z" fill="#C6C6C6"/>
<path d="M59.9507 40.6628C58.5987 41.452 57.4169 42.5456 55.9248 43.0892C55.3839 43.2862 54.9149 43.4769 54.5564 43.1436C53.244 41.9228 53.9796 39.3157 55.8748 37.752C69.5127 26.5008 79.5368 13.8529 82.5777 -1.42703C82.8338 -2.7036 82.999 -3.96997 83.072 -5.21788C83.1327 -6.29563 83.3336 -7.64414 84.5559 -7.97128C86.102 -8.38508 85.799 -6.81286 85.8072 -5.89601C85.8464 -1.55267 84.732 2.93003 83.2712 7.43885C79.7443 18.3248 73.089 28.1477 63.9962 37.1178C62.7328 38.3643 61.3072 39.4809 59.9507 40.6628Z" fill="#C6C6C6"/>
</g>
</svg>
