<svg width="155" height="127" viewBox="0 0 155 127" fill="none" xmlns="http://www.w3.org/2000/svg">
<path d="M86.2208 36.6323C86.7243 36.1214 86.6025 35.501 86.7818 34.9759C86.8863 34.6701 87.1628 34.1772 87.324 34.3111C88.4652 35.2592 90.3623 34.3402 91.2114 35.9143C94.6589 42.3038 99.8738 47.4263 103.791 53.4791C104.066 53.9044 104.369 54.3117 104.649 54.7339C106.267 57.1739 106.266 57.1746 103.638 58.1531C100.935 59.1594 100.691 59.1293 98.6501 56.8643C94.409 52.1587 90.1936 47.4288 86.2254 42.4881C84.9879 40.9474 83.9069 39.2898 83.9183 37.1939C83.9127 36.6274 83.9877 36.063 84.1411 35.5177C84.2823 35.0497 84.5418 34.4694 85.136 34.5189C85.7527 34.5702 85.5506 35.1838 85.6142 35.5909C85.6706 35.9636 85.7013 36.3474 86.2208 36.6323Z" fill="#73314F"/>
<path d="M63.6028 56.0536C66.0228 56.6093 67.9229 58.0744 69.7638 59.6408C73.7616 63.0431 77.1871 67.0616 81.2939 70.3482C82.0879 70.9837 82.0057 71.4355 81.0816 72.0535C78.3975 73.849 76.2953 72.4943 74.307 70.8957C70.3165 67.6876 66.4163 64.3668 62.4619 61.1135C61.4371 60.2704 60.3577 59.4929 59.2875 58.7068C58.6684 58.2526 58.6612 57.652 58.8185 57.0083C58.9803 56.3419 59.4339 56.2401 60.0921 56.1829C61.2631 56.0811 62.4179 55.8157 63.6028 56.0536Z" fill="#73314F"/>
<path d="M55.2222 91.0066C52.6598 90.5881 50.0971 90.1817 47.539 89.7446C46.7246 89.6056 45.8648 89.459 45.7829 88.3621C45.7078 87.361 46.5917 87.4258 47.1521 87.0929C48.232 86.4514 49.4035 86.2656 50.6166 86.276C55.8935 86.3213 61.1006 86.8217 66.0993 88.6813C66.6402 88.8826 67.2348 88.9663 67.3824 89.6334C67.5491 90.3879 66.8262 90.4671 66.4612 90.8531C64.7569 92.6557 62.7386 92.3264 60.6478 91.9182C58.8486 91.5668 57.03 91.3153 55.2201 91.0197L55.2222 91.0066Z" fill="#73314F"/>
</svg>