<svg width="43" height="83" viewBox="0 0 43 83" fill="none" xmlns="http://www.w3.org/2000/svg">
<path d="M31.744 41.4422C31.6962 42.9878 31.1551 44.4299 30.663 45.8754C28.5374 52.1164 24.7275 57.2115 20.0256 61.7286C16.8848 64.746 13.4884 67.4333 9.99092 70.0061C9.6717 70.2405 9.34003 70.466 9.17238 70.8448C8.9839 71.2704 8.99422 71.5823 9.59184 71.4232C9.73907 71.384 9.88915 71.1954 9.95068 71.4749C10.1627 72.4389 10.8661 72.2388 11.5006 72.122C12.6916 71.9027 13.6732 71.1936 14.6834 70.6004C17.5139 68.9389 20.2847 67.1685 22.8 65.0489C25.1352 63.081 27.16 60.7956 29.1203 58.4547C30.3678 56.9647 31.6166 55.4316 32.2727 53.6122C32.7084 52.4038 33.5409 51.4661 33.98 50.2876C34.8218 48.0291 35.6361 45.7706 35.964 43.3658C36.234 41.3861 35.9925 39.4765 35.1457 37.6681C35.0108 37.4054 34.9426 37.1134 34.947 36.8179C34.9514 36.5224 35.0284 36.2325 35.1712 35.9739C35.9362 34.4657 36.6551 32.9281 37.3481 31.3931C38.4755 28.8964 39.203 26.2318 39.8236 23.5562C40.8136 19.2891 41.3644 14.9805 40.8584 10.5921C40.5611 8.01263 40.1012 5.48896 38.337 3.42831C37.8725 2.88579 37.345 2.46839 36.5929 2.4316C36.2689 2.41549 36.0159 2.49865 35.8552 2.80581C35.6652 3.16851 35.9277 3.22291 36.1565 3.41541C37.7242 4.73582 37.7904 6.64549 38.0144 8.47269C38.6322 13.5081 37.7701 18.3994 36.5176 23.247C35.5735 26.9516 34.2344 30.5435 32.5233 33.9605C32.3865 34.2321 32.3651 34.6206 31.8553 34.3439C30.0793 33.3804 28.1854 33.3603 26.2984 33.8763C23.387 34.6726 20.959 36.1565 19.8361 39.1512C19.2326 40.7612 19.6776 41.9026 20.9979 42.9811C24.3623 45.7301 28.3064 44.6874 30.8287 42.0644C31.0543 41.8297 31.2797 41.5949 31.505 41.3601C31.5848 41.387 31.6645 41.4143 31.744 41.4422ZM23.9346 42.0449C22.992 41.9815 23.1593 41.3816 23.2846 40.8283C23.7082 38.9576 25.2396 38.1017 26.7116 37.2975C27.7847 36.7118 28.9733 36.2377 30.2617 36.3258C30.7529 36.3593 31.1326 36.5219 30.7307 37.1312C29.6339 38.7944 28.3446 40.2655 26.5933 41.2609C25.7592 41.7347 24.8618 42.0382 23.9346 42.0451L23.9346 42.0449ZM30.8051 48.5651C31.5544 46.2198 32.3762 43.9221 32.8583 41.5219C32.862 44.0781 31.9025 46.3551 30.8051 48.5651ZM32.9655 34.6828L35.5987 28.8368C35.0593 30.9216 34.1687 32.8988 32.9655 34.6828Z" fill="#89AAAD"/>
<path d="M12.3635 75.8198C10.3201 75.7008 8.29211 75.9337 6.26034 76.0873C5.95673 76.1103 5.61254 76.2981 5.38103 75.899C5.15854 75.5153 5.43818 75.256 5.61928 75.0227C6.60509 73.7522 7.16456 72.2626 7.88476 70.8503C8.34001 69.9577 8.96713 69.145 9.40689 68.214C10.0839 66.7802 10.8687 65.3958 11.6435 64.0106C12.0361 63.309 12.084 62.4537 12.7711 61.8708C13.4453 61.2991 13.3116 60.6102 12.3335 59.7607C11.8346 59.3274 11.1401 59.1105 10.583 59.7349C10.119 60.248 9.70613 60.8054 9.35015 61.3991C7.04241 65.3197 4.7661 69.259 2.46311 73.1823C1.94594 74.0633 1.36936 74.9095 0.810066 75.7651C-0.206423 77.3201 -0.0244309 78.0285 1.54645 79.0295C2.76535 79.8065 4.01787 79.9618 5.41128 79.6172C8.09265 78.954 10.7931 78.3676 13.5634 78.2224C14.1185 78.1934 14.6772 78.2426 15.2339 78.2357C15.8787 78.2276 16.0667 77.9394 15.7346 77.3573C14.9983 76.0671 14.7258 75.9419 12.3635 75.8198ZM4.61265 71.1843C3.8526 73.0635 2.8578 74.7986 1.51841 76.3211L4.61265 71.1843Z" fill="#89AAAD"/>
</svg>
