<svg width="111" height="47" viewBox="0 0 111 47" fill="none" xmlns="http://www.w3.org/2000/svg">
<path opacity="0.3" d="M106.819 24.5628C108.01 26.1163 109.078 27.7097 110.353 29.1163C111.703 30.6096 113.213 31.9507 114.855 33.1158C116.222 34.085 117.497 35.1772 119.132 35.6888C120.051 36.8114 121.475 36.9962 122.686 37.5648C123.182 37.7966 123.819 37.7153 124.333 37.9226C124.886 38.1456 125.493 38.082 125.993 38.2557C127.841 38.8985 129.822 38.7578 131.672 39.3294C131.808 39.3715 131.993 39.2557 132.218 39.1968L133.31 40.839L131.461 41.282L133.124 41.9879L132.218 42.8552L132.328 43.5702C131.84 44.0683 131.356 44.8381 130.66 45.2037C129.691 45.7138 128.578 45.9799 127.498 46.2271C126.997 46.3205 126.478 46.2544 126.016 46.0382C125.053 45.5812 123.907 45.8432 122.998 45.1996C122.865 45.1052 122.573 45.2356 122.321 45.2658C122.334 45.0535 122.348 44.832 122.362 44.6057L116.143 41.9654C116.616 42.5609 117.305 42.7372 117.933 43.0225C118.645 43.3451 119.373 43.634 120.091 43.9453C120.729 44.2223 121.361 44.5117 121.867 45.09C120.613 44.5574 119.356 44.0313 118.105 43.4906C116.618 42.8477 115.026 42.3733 114.006 40.9708C112.499 40.358 111.392 39.21 110.162 38.2073C109.579 37.7418 109.131 37.1283 108.867 36.4309C108.755 36.476 108.644 36.5216 108.439 36.6065C107.672 35.6491 106.976 34.5754 106.073 33.7204C105.449 33.1299 105.502 32.1974 104.773 31.717C104.505 31.5403 104.336 31.2154 104 30.8116C103.584 30.4483 102.584 30.6387 102.292 29.722C102.181 29.7668 102.069 29.8118 101.891 29.8839L101.566 29.4568L101.077 29.9471L100.526 29.7131L101.044 29.3396C100.969 29.2569 100.891 29.1 100.821 29.1037C100.319 29.1303 99.8174 29.183 99.3175 29.2406C98.8694 29.292 98.4233 29.3605 97.8721 29.4357L97.5205 28.9163L96.9568 29.4137L96.8029 29.073C96.344 29.204 95.8258 29.5391 95.4323 29.4288C94.3552 29.1264 93.3116 29.5186 92.2494 29.4105C91.711 29.3557 91.124 29.597 90.5836 29.7779C88.8151 30.3933 86.9547 30.7034 85.0822 30.6951L84.8428 30.1586L83.9328 30.5313L82.507 29.9259C82.1566 30.1777 81.8356 30.4083 81.4762 30.6669L80.8933 30.4194C80.6009 30.5792 80.3212 30.8676 80.0632 30.8494C78.8668 30.7644 77.5986 31.0971 76.6291 29.867C76.2159 29.3427 75.2757 29.2341 74.4551 29.208L76.4018 30.1783L76.3109 30.3677L74.0795 29.4203C74.0936 29.1936 74.1075 28.9721 74.1311 28.5987C73.0322 29.0166 72.3542 28.3871 71.7205 27.7179C70.8294 26.7771 69.98 25.8353 69.35 24.6495C68.5356 23.1165 67.6231 21.6004 66.3696 20.3466C66.2322 20.172 66.1097 19.9862 66.0034 19.791L64.0574 18.9648C64.0353 18.8401 64.0019 18.7678 64.0223 18.7446C64.0588 18.7046 64.1318 18.7002 64.1837 18.6708C64.272 18.6209 64.3558 18.5628 64.5152 18.4612L63.3256 17.9561C63.3466 17.6821 63.3633 17.4636 63.3841 17.191L62.7489 16.7889L62.9049 17.5207L62.3917 17.7574L63.344 18.4054C61.0192 17.8298 58.5689 17.8107 56.5136 16.506C55.6322 17.4669 54.6702 17.3902 53.6056 16.8916C51.6406 17.5928 49.6531 18.3578 47.6288 19.0089C45.5193 19.6872 43.2956 20.0454 41.1319 19.6641C39.309 19.3428 37.2862 19.2249 35.9034 17.6283C35.7582 17.5198 35.5903 17.4454 35.4123 17.4107C33.6913 16.7767 32.55 15.4203 31.3926 14.1116C30.9088 13.5633 30.677 12.7969 30.2074 12.2319C29.5634 11.4568 28.742 10.8683 27.9299 10.2517C26.4776 9.14949 24.7816 8.65504 23.1868 7.91105C21.717 7.23982 20.1412 6.83081 18.5304 6.70249C18.3489 6.68331 18.1778 6.60848 18.0405 6.48823C17.9249 6.33331 17.8345 6.16113 17.7726 5.97803C17.6227 6.14733 17.4794 6.30915 17.2309 6.58959L16.5536 5.93966C16.4766 6.03876 16.3739 6.17109 16.1993 6.39611C14.6879 6.20995 13.0363 7.03515 11.5003 6.07246L10.7993 6.35559L10.9861 6.90097C9.94576 7.15509 8.84339 7.26114 7.89529 7.70035C6.88793 8.16711 5.92547 8.67094 4.63529 8.93062C4.47439 9.07488 4.14334 9.37106 3.7506 9.72269L2.71672 9.84711C2.19778 10.8099 2.19778 10.8099 1.44232 11.1987L0.612869 9.14477L1.84632 6.23973C1.9403 6.22027 2.49555 6.25458 2.60212 6.05253C3.03665 5.22747 4.028 5.34302 4.56882 4.7446C5.14307 4.1098 5.97575 3.93789 6.71322 3.59248C7.72086 3.12005 8.72074 2.63255 9.70104 2.10993C11.9108 0.932626 15.6975 0.348571 18.696 0.879821C19.4043 1.00528 20.143 0.948817 20.8601 1.03687C21.5371 1.12009 22.0303 1.79967 22.8747 1.53308C23.2237 1.42281 23.7453 1.85986 23.806 1.88561L24.6194 2.85886C24.2733 3.06829 24.0823 3.18456 23.8083 3.35026L25.8399 4.21283L24.9458 3.40077C26.2623 2.8332 27.4427 2.47889 28.4869 3.79786C28.6141 3.91736 28.7668 4.0065 28.9334 4.05858C30.9772 4.96042 32.4715 6.42207 33.6599 8.31683C34.1411 9.08431 34.8819 9.85401 35.8474 10.1144C36.7945 10.3695 37.3927 11.1324 38.223 11.5347C40.7456 12.7569 43.3904 12.7506 46.0533 12.2044C47.4719 11.9283 48.8679 11.5467 50.2296 11.0625C52.5756 10.2002 54.9918 10.1058 57.4152 10.3003C59.1575 10.44 60.8656 10.9494 62.5891 11.2301C64.3941 11.5251 65.8888 12.4931 67.5752 12.9921C68.6689 13.3157 69.2905 14.1382 69.8676 14.9568C71.1417 16.7635 72.2708 18.6719 73.5261 20.4926C74.1042 21.3306 75.0021 21.8796 75.8604 22.3979C77.4314 23.3467 79.2307 23.5823 81.0125 23.6942C82.4508 23.7846 83.9034 23.6656 85.349 23.6168C87.7746 23.5347 90.1475 23.085 92.5398 22.7033C94.949 22.3189 97.4282 22.1533 99.8744 22.7824C100.621 22.9745 101.426 22.9637 102.206 23.0036C103.911 23.0914 105.316 24.0251 106.819 24.5628Z" fill="#89AAAD"/>
</svg>
