<svg width="146" height="147" viewBox="0 0 146 147" fill="none" xmlns="http://www.w3.org/2000/svg">
<g opacity="0.3">
<path d="M103.466 99.1434C104.213 101.382 105.028 103.606 105.678 105.866C105.975 106.898 106.43 108.311 105.254 108.661C103.875 109.071 102.637 108.038 102.086 106.41C99.9828 100.198 97.1723 94.3425 94.2238 88.5388C90.958 82.1107 87.2607 75.9797 82.9874 70.5699C79.5174 66.1771 75.6228 62.1822 71.5286 58.6321C63.0792 51.3055 54.1484 45.5652 45.0523 40.3224C44.3352 39.9091 43.5426 39.6515 43.0072 38.7609C42.7752 38.3754 42.3964 37.9984 42.603 37.4805C42.7966 36.9955 43.1953 37.0644 43.5644 37.2131C44.4725 37.5546 45.375 37.9553 46.2677 38.4135C56.7472 44.0889 67.0224 50.4442 76.5426 59.199C88.1738 69.8959 97.1961 83.1583 103.466 99.1434Z" fill="#C6C6C6"/>
<path d="M87.4135 99.1706C87.7948 100.689 88.5158 102.129 88.6221 103.713C88.6606 104.287 88.7131 104.791 88.2932 105.042C86.755 105.963 84.4561 104.53 83.4823 102.274C76.4765 86.0414 67.1224 72.8902 53.2948 65.7124C52.1401 65.1107 50.9699 64.5993 49.7918 64.1814C48.7736 63.8229 47.5345 63.2542 47.5609 61.9891C47.5942 60.389 49.0198 61.118 49.9026 61.3656C54.0849 62.5381 58.0795 64.8574 62.0028 67.5166C71.4751 73.9369 79.0546 83.0656 85.1361 94.2975C85.9812 95.8582 86.6564 97.5384 87.4135 99.1706Z" fill="#C6C6C6"/>
</g>
</svg>
