<svg width="28" height="24" viewBox="0 0 28 24" fill="none" xmlns="http://www.w3.org/2000/svg">
<path d="M25.8739 16.1655C24.2404 13.811 21.6921 12.5739 17.0783 11.8997C13.8711 11.4263 12.0314 9.6107 12.0314 6.92738C12.0314 4.21702 14.2372 2.01127 16.9494 2.01127C19.7998 2.01127 21.8685 4.07864 21.8685 6.92738C21.8685 7.14172 21.8396 7.4757 21.8396 7.47882L21.8334 7.55581L21.9056 7.58287C21.9407 7.59639 22.7492 7.87627 23.2699 7.46217C23.8444 7.00646 23.6732 5.86925 23.5999 5.5259C23.2788 4.04287 22.4504 2.72125 21.26 1.79278C20.0246 0.833678 18.5083 0.31582 16.9494 0.320544C15.1647 0.305845 13.4443 0.992003 12.152 2.23393C11.5227 2.83918 11.0224 3.56757 10.6816 4.37457C10.3408 5.18156 10.1667 6.0502 10.17 6.92738C10.17 10.5429 12.6563 13.066 16.8205 13.6809C20.9455 14.2885 23.074 15.2759 24.4115 17.2039C25.9337 19.3961 25.5212 22.7994 25.516 22.8337C25.4562 23.2957 25.7439 23.6141 26.2843 23.6869C26.3233 23.692 26.3626 23.6944 26.4019 23.6942C26.9175 23.6942 27.233 23.4715 27.2856 23.0699C27.3073 22.8962 27.8002 18.9414 25.8739 16.1655Z" fill="#FBFBFB"/>
<path d="M8.83631 12.1281C8.89819 11.6079 8.64862 11.3061 8.28872 11.1573C8.15569 11.1022 5.04028 9.93794 5.04028 7.10584C5.04028 4.36114 6.88725 3.17503 8.61665 2.98151C8.81973 2.95806 9.02468 2.95597 9.22818 2.97526L9.26119 2.89723C9.27253 2.86914 9.53653 2.19181 9.06938 1.74545C8.50425 1.20442 7.46578 1.45517 7.41937 1.46453C6.53972 1.6591 5.76937 2.09609 5.05472 2.80151C4.43597 3.41121 3.40472 4.77836 3.40472 7.10584C3.40472 8.80281 4.28128 10.3468 6.00862 11.6953C4.98872 12.1114 2.69418 13.2455 1.533 15.342C0.133591 17.8693 0.536811 20.6129 0.554342 20.7284C0.597654 21.0041 0.784311 21.3329 1.43503 21.3329C1.48061 21.3331 1.52613 21.3296 1.57115 21.3225C2.1074 21.2393 2.38687 20.9126 2.31675 20.4465C2.2755 20.2124 1.9424 18.0982 2.98293 16.2202C4.107 14.1902 6.38606 13.0041 8.07215 12.9188C8.47022 12.8991 8.77341 12.6327 8.83631 12.1281Z" fill="#FBFBFB"/>
<path d="M11.4936 14.7109H11.4822C10.7861 14.7109 10.1829 15.2312 9.79924 15.6629C9.20918 16.3361 8.72472 17.0965 8.36271 17.9176C7.39333 20.1192 7.7914 22.6287 7.88111 23.1094C7.95124 23.4944 8.24618 23.6889 8.75665 23.6889C8.81093 23.6888 8.8651 23.684 8.91855 23.6744C9.47027 23.5703 9.76212 23.227 9.67962 22.7723C9.62702 22.533 9.18565 20.3793 9.94774 18.649C10.6067 17.1529 11.7885 15.9231 12.5042 15.6411L12.5929 15.6068L12.5651 15.5152C12.562 15.5069 12.3072 14.7172 11.4936 14.7109Z" fill="#FBFBFB"/>
</svg>
