<svg width="1176" height="1132" viewBox="0 0 176 132" fill="none" xmlns="http://www.w3.org/2000/svg">
  <rect x="1.73939" y="96.5527" width="7.56076" height="10.4943" rx="3.78038" transform="rotate(-10.0805 1.73939 96.5527)" stroke="#743250" stroke-width="3" />
  <path d="M10.3544 99.4488L32.4508 95.6568" stroke="#743250" stroke-width="3" stroke-linecap="round" />
  <path d="M31.2747 100.435L30.7138 96.2967" stroke="#743250" stroke-width="3" stroke-linecap="round" />
  <path d="M150.026 114.898C150.026 114.898 146.284 109.941 149.64 104.54C149.64 104.54 153.329 106.216 153.772 107.609C153.772 107.609 151.157 112.827 156.428 118.251C156.401 118.252 151.515 116.563 150.026 114.898Z" fill="url(#paint0_linear_0_1)" />
  <path d="M166.408 124.13C166.408 124.13 157.246 125.447 150.032 114.906C150.032 114.906 158.366 120.344 163.548 117.591C163.546 117.563 166.642 120.526 166.408 124.13Z" fill="#73314F" />
  <path d="M38.9192 9.63307C38.9192 9.63307 41.7384 6.20896 46.0351 7.64562C46.0351 7.64562 45.4663 10.4806 44.5845 11.0291C44.5845 11.0291 40.5336 10.0549 37.6223 14.617C37.6421 14.6158 38.0024 10.9387 38.9192 9.63307Z" fill="url(#paint1_linear_0_1)" />
  <path d="M35.1989 22.5301C35.1989 22.5301 32.7722 16.3939 38.9125 9.63542C38.9125 9.63542 36.5228 16.3128 39.2911 19.4684C39.2702 19.4498 37.737 22.1029 35.1989 22.5301Z" fill="#73314F" />
  <path d="M82.9596 25.5299C82.9596 25.5299 82.5816 24.0201 84.0936 21.6503C84.0936 21.6503 85.5106 21.431 86.2211 21.6446C86.9325 21.8752 88.097 22.2834 87.9672 22.6826C87.8205 23.0827 87.2006 24.4128 87.1057 25.695C87.0107 26.9773 85.9731 25.8296 84.8635 26.065C83.7358 26.2844 82.9855 26.2604 82.9596 25.5299Z" fill="#89AAAD" />
  <path d="M134.06 24.3116C134.06 24.3116 133.326 21.3828 136.259 16.7859C136.259 16.7859 139.008 16.3604 140.386 16.7748C141.766 17.2221 144.025 18.014 143.774 18.7883C143.489 19.5645 142.287 22.1446 142.102 24.6319C141.918 27.1192 139.905 24.893 137.753 25.3496C135.6 25.8061 134.143 25.7266 134.06 24.3116Z" fill="url(#paint2_linear_0_1)" />
  <path d="M142.307 78.2126C142.307 78.2126 141.348 74.3805 145.185 68.3658C145.185 68.3658 148.782 67.809 150.585 68.3512C152.391 68.9365 155.346 69.9727 155.017 70.9858C154.644 72.0013 153.071 75.3772 152.83 78.6317C152.589 81.8861 149.956 78.9732 147.139 79.5706C144.32 80.1249 142.416 80.064 142.307 78.2126Z" fill="#4F7D7D" />
  <path d="M163.941 59.0073C163.941 59.0073 164.91 57.1898 168.496 56.1967C168.496 56.1967 170.097 57.2276 170.587 58.0792C171.077 58.9307 171.871 60.3758 171.374 60.6496C170.876 60.9233 169.086 61.6642 167.834 62.8381C166.607 64.0106 166.584 61.9578 165.317 61.2008C164.027 60.4695 163.325 59.7527 163.941 59.0073Z" fill="#4F7D7D" />
  <path d="M104.909 7.93032C104.909 7.93032 107.55 5.00902 114.616 4.86627C114.616 4.86627 117.085 7.53292 117.598 9.31678C118.111 11.1006 118.924 14.1366 117.853 14.4263C116.826 14.7133 113.139 15.2472 110.329 16.818C107.519 18.3888 108.431 14.6166 106.411 12.6492C104.388 10.6365 103.431 9.01478 104.909 7.93032Z" fill="#4F7D7D" />
  <path d="M158.483 34.6564C158.483 34.6564 159.474 33.5599 162.126 33.5063C162.126 33.5063 163.053 34.5073 163.246 35.1769C163.438 35.8464 163.743 36.986 163.341 37.0948C162.956 37.2025 161.572 37.4029 160.517 37.9925C159.462 38.5821 159.805 37.1662 159.047 36.4277C158.287 35.6722 157.928 35.0635 158.483 34.6564Z" fill="#73314F" />
  <path d="M51.3134 32.2586C51.3134 32.2586 53.386 31.5701 56.8449 33.4284C56.8449 33.4284 57.3205 35.3846 57.0712 36.4042C56.8475 37.4223 56.379 39.0989 55.802 38.9267C55.2265 38.7801 53.3022 38.0427 51.5227 38.0183C49.7448 38.0197 51.1997 36.4655 50.7754 34.9443C50.3254 33.4246 50.2893 32.3703 51.3134 32.2586Z" fill="url(#paint3_linear_0_1)" />
  <defs>
    <linearGradient id="paint0_linear_0_1" x1="156.428" y1="118.251" x2="148.908" y2="104.131" gradientUnits="userSpaceOnUse">
      <stop stop-color="#73314F" />
      <stop offset="0.376449" stop-color="#73314F" stop-opacity="0.9" />
      <stop offset="1" stop-color="#EB885A" />
      <stop offset="1" stop-color="#D87446" />
    </linearGradient>
    <linearGradient id="paint1_linear_0_1" x1="46.414" y1="14.1008" x2="44.2765" y2="5.84865" gradientUnits="userSpaceOnUse">
      <stop stop-color="#73314F" />
      <stop offset="0.376449" stop-color="#73314F" stop-opacity="0.9" />
      <stop offset="1" stop-color="#EB885A" />
      <stop offset="1" stop-color="#D87446" />
    </linearGradient>
    <linearGradient id="paint2_linear_0_1" x1="144.204" y1="25.6587" x2="140.963" y2="14.6919" gradientUnits="userSpaceOnUse">
      <stop stop-color="#73314F" />
      <stop offset="0.376449" stop-color="#73314F" stop-opacity="0.9" />
      <stop offset="1" stop-color="#EB885A" />
      <stop offset="1" stop-color="#D87446" />
    </linearGradient>
    <linearGradient id="paint3_linear_0_1" x1="57.3402" y1="38.854" x2="54.6998" y2="30.8063" gradientUnits="userSpaceOnUse">
      <stop stop-color="#73314F" />
      <stop offset="0.376449" stop-color="#73314F" stop-opacity="0.9" />
      <stop offset="1" stop-color="#EB885A" />
      <stop offset="1" stop-color="#D87446" />
    </linearGradient>
  </defs>
</svg>
  