<svg width="1146" height="1114" viewBox="0 0 146 114" fill="none" xmlns="http://www.w3.org/2000/svg">
  <g filter="url(#filter0_d_2_2254)">
    <path fill-rule="evenodd" clip-rule="evenodd" d="M24.0026 20C22.0833 20 20.5273 21.5559 20.5273 23.4753V82.6403C20.5273 84.5596 22.0833 86.1156 24.0026 86.1156H32.4255L35.6574 93.0394C36.0734 93.9306 37.3407 93.9307 37.7568 93.0394L40.9886 86.1156H122.041C123.96 86.1156 125.516 84.5596 125.516 82.6403V23.4753C125.516 21.5559 123.96 20 122.041 20H24.0026Z" fill="white" />
  </g>
  <g filter="url(#filter1_d_2_2254)">
    <path fill-rule="evenodd" clip-rule="evenodd" d="M32.61 85.826L35.9198 92.9169C36.2318 93.5853 37.1823 93.5853 37.4943 92.9169L40.8042 85.826H122.041C123.8 85.826 125.226 84.3997 125.226 82.6403V23.4753C125.226 21.7159 123.8 20.2896 122.041 20.2896H24.0026C22.2432 20.2896 20.8169 21.7159 20.8169 23.4753V82.6403C20.8169 84.3997 22.2432 85.826 24.0026 85.826H32.61ZM20.5273 23.4753C20.5273 21.5559 22.0833 20 24.0026 20H122.041C123.96 20 125.516 21.5559 125.516 23.4753V82.6403C125.516 84.5596 123.96 86.1156 122.041 86.1156H40.9886L37.7568 93.0394C37.3407 93.9307 36.0734 93.9306 35.6574 93.0394L32.4255 86.1156H24.0026C22.0833 86.1156 20.5273 84.5596 20.5273 82.6403V23.4753Z" fill="#E4E4E4" />
  </g>
  <path d="M30.7128 37.1326V36.938L30.8981 36.8917C31.0217 36.8546 31.102 36.799 31.1391 36.7249C31.1761 36.6507 31.1947 36.5488 31.1947 36.4191C31.2008 36.0669 31.2039 35.7116 31.2039 35.3533C31.2039 34.9888 31.2039 34.6243 31.2039 34.2598V33.8798C31.2039 33.5215 31.2039 33.1631 31.2039 32.8048C31.2039 32.4464 31.2008 32.0881 31.1947 31.7298C31.1947 31.6 31.173 31.5012 31.1298 31.4332C31.0927 31.3591 31.0124 31.3004 30.8888 31.2571L30.7128 31.2015V31.0069H32.9462C33.8482 31.0069 34.5031 31.1768 34.9109 31.5166C35.3248 31.8502 35.5318 32.292 35.5318 32.8419C35.5318 33.1878 35.4453 33.5091 35.2723 33.8057C35.1055 34.096 34.8275 34.3277 34.4382 34.5007C34.049 34.6737 33.5239 34.7602 32.8628 34.7602H32.5292C32.5292 35.0197 32.5292 35.2884 32.5292 35.5665C32.5292 35.8383 32.5323 36.1163 32.5384 36.4005C32.5384 36.6538 32.6527 36.8083 32.8813 36.8639L33.1594 36.938V37.1326H30.7128ZM32.5292 34.4914H32.9184C33.2273 34.4914 33.4775 34.4451 33.6691 34.3524C33.8668 34.2536 34.0119 34.0868 34.1046 33.852C34.2035 33.6172 34.2529 33.2929 34.2529 32.8789C34.2529 32.465 34.2004 32.1437 34.0954 31.9151C33.9965 31.6803 33.8451 31.5166 33.6413 31.4239C33.4374 31.3251 33.1841 31.2757 32.8813 31.2757H32.5384C32.5323 31.702 32.5292 32.1344 32.5292 32.5731C32.5292 33.0056 32.5292 33.4411 32.5292 33.8798V34.4914Z" fill="black" />
  <path d="M37.1423 37.2624C36.7901 37.2624 36.4905 37.1635 36.2434 36.9658C36.0024 36.7619 35.8819 36.4716 35.8819 36.0947C35.8819 35.7981 36.024 35.5263 36.3082 35.2792C36.5986 35.0259 37.0527 34.8405 37.6705 34.7231C37.7756 34.6984 37.896 34.6768 38.032 34.6583C38.1741 34.6335 38.3131 34.6088 38.449 34.5841V33.9261C38.449 33.506 38.3965 33.2156 38.2914 33.055C38.1864 32.8944 38.0196 32.8141 37.791 32.8141H37.7632C37.6211 32.8141 37.5068 32.8604 37.4203 32.9531C37.34 33.0396 37.2875 33.1847 37.2628 33.3886L37.235 33.5091C37.2164 33.7562 37.1516 33.9385 37.0403 34.0559C36.9291 34.1671 36.7901 34.2227 36.6233 34.2227C36.4689 34.2227 36.3391 34.1764 36.2341 34.0837C36.1352 33.9848 36.0858 33.8582 36.0858 33.7037C36.0858 33.4504 36.1723 33.2373 36.3453 33.0643C36.5183 32.8913 36.7469 32.7615 37.0311 32.675C37.3215 32.5885 37.6335 32.5453 37.9671 32.5453C38.5169 32.5453 38.9371 32.6781 39.2274 32.9438C39.5178 33.2095 39.663 33.6419 39.663 34.2412V36.3078C39.663 36.5735 39.7897 36.7063 40.043 36.7063H40.2561L40.3488 36.8083C40.2376 36.9504 40.114 37.0585 39.9781 37.1326C39.8422 37.213 39.6568 37.2531 39.4221 37.2531C39.1564 37.2531 38.9432 37.1913 38.7826 37.0678C38.6282 36.938 38.5262 36.7681 38.4768 36.5581C38.2791 36.7681 38.0845 36.938 37.8929 37.0678C37.7014 37.1975 37.4512 37.2624 37.1423 37.2624ZM37.6798 36.6693C37.8034 36.6693 37.9207 36.6415 38.032 36.5859C38.1432 36.5303 38.2822 36.4376 38.449 36.3078V34.8251C38.2884 34.8498 38.1246 34.8807 37.9578 34.9177C37.6922 34.9795 37.4759 35.0938 37.3091 35.2606C37.1485 35.4274 37.0681 35.653 37.0681 35.9372C37.0681 36.1843 37.1238 36.3696 37.235 36.4932C37.3523 36.6106 37.5006 36.6693 37.6798 36.6693Z" fill="black" />
  <path d="M40.5318 37.1326V36.9566L40.6708 36.9102C40.7943 36.8793 40.8777 36.8268 40.921 36.7527C40.9704 36.6785 40.9951 36.5797 40.9951 36.4561V33.7408C40.9889 33.6049 40.9642 33.5029 40.921 33.435C40.8777 33.3608 40.7943 33.3114 40.6708 33.2867L40.5318 33.2496V33.0828L42.0423 32.5453L42.1535 32.6472L42.2369 33.4628V33.5276C42.3296 33.3546 42.447 33.194 42.5891 33.0457C42.7312 32.8975 42.8857 32.777 43.0525 32.6843C43.2193 32.5916 43.3861 32.5453 43.5529 32.5453C43.7877 32.5453 43.9638 32.6071 44.0812 32.7306C44.1985 32.8542 44.2572 33.0118 44.2572 33.2033C44.2572 33.4133 44.1985 33.574 44.0812 33.6852C43.9638 33.7902 43.8217 33.8427 43.6549 33.8427C43.4077 33.8427 43.1946 33.7315 43.0154 33.5091L42.9969 33.4906C42.9351 33.4164 42.864 33.3763 42.7837 33.3701C42.7096 33.3577 42.6354 33.3948 42.5613 33.4813C42.4995 33.5431 42.4408 33.6172 42.3852 33.7037C42.3358 33.784 42.2895 33.8798 42.2462 33.991V36.4191C42.2462 36.5364 42.2709 36.6353 42.3204 36.7156C42.3698 36.7897 42.4532 36.8423 42.5706 36.8732L42.8486 36.9566V37.1326H40.5318Z" fill="black" />
  <path d="M46.7402 32.5453C47.1294 32.5453 47.463 32.6256 47.741 32.7862C48.0191 32.9469 48.2322 33.1693 48.3805 33.4535C48.5349 33.7315 48.6122 34.0528 48.6122 34.4173C48.6122 34.4976 48.6091 34.5748 48.6029 34.649C48.5967 34.7169 48.5844 34.7818 48.5658 34.8436H45.7764C45.7825 35.48 45.8999 35.9372 46.1285 36.2152C46.3633 36.4932 46.7031 36.6322 47.1479 36.6322C47.4568 36.6322 47.7071 36.5828 47.8986 36.4839C48.0901 36.3789 48.2662 36.2337 48.4268 36.0484L48.5751 36.1874C48.3897 36.5272 48.1364 36.7928 47.8152 36.9844C47.5001 37.1697 47.1232 37.2624 46.6846 37.2624C46.2459 37.2624 45.8598 37.1697 45.5261 36.9844C45.1925 36.799 44.9299 36.5334 44.7384 36.1874C44.5531 35.8352 44.4604 35.4151 44.4604 34.927C44.4604 34.4204 44.5685 33.991 44.7847 33.6388C45.0072 33.2867 45.2914 33.0179 45.6373 32.8326C45.9895 32.6411 46.3571 32.5453 46.7402 32.5453ZM46.6938 32.8141C46.5147 32.8141 46.3571 32.8666 46.2212 32.9716C46.0914 33.0704 45.9864 33.2496 45.9061 33.5091C45.832 33.7624 45.7887 34.1207 45.7764 34.5841H47.4352C47.5032 33.9601 47.4785 33.5091 47.3611 33.2311C47.2437 32.9531 47.0213 32.8141 46.6938 32.8141Z" fill="black" />
  <path d="M49.0841 37.1326V36.9566L49.2324 36.9195C49.4363 36.8577 49.5382 36.7063 49.5382 36.4654V33.7315C49.5321 33.6018 49.5104 33.5029 49.4734 33.435C49.4363 33.3608 49.356 33.3114 49.2324 33.2867L49.0841 33.2496V33.0828L50.5855 32.5453L50.6967 32.6472L50.7615 33.2218C50.984 33.0241 51.2311 32.8635 51.5029 32.7399C51.781 32.6102 52.0528 32.5453 52.3185 32.5453C52.7262 32.5453 53.0382 32.6565 53.2545 32.8789C53.4769 33.1013 53.5881 33.4411 53.5881 33.8983V36.4747C53.5881 36.7156 53.6993 36.867 53.9217 36.9288L54.0237 36.9566V37.1326H51.8922V36.9566L52.0312 36.9195C52.2351 36.8515 52.337 36.7002 52.337 36.4654V33.713C52.337 33.4967 52.2907 33.3392 52.198 33.2403C52.1053 33.1415 51.9509 33.0921 51.7346 33.0921C51.4319 33.0921 51.1168 33.2249 50.7893 33.4906V36.4747C50.7893 36.7156 50.8975 36.867 51.1137 36.9288L51.2064 36.9566V37.1326H49.0841Z" fill="black" />
  <path d="M56.1027 37.2624C55.7196 37.2624 55.4169 37.1697 55.1945 36.9844C54.9782 36.7928 54.8701 36.4839 54.8701 36.0576C54.8701 35.9093 54.8701 35.7703 54.8701 35.6406C54.8763 35.5047 54.8794 35.3471 54.8794 35.168V32.9716H54.2214V32.7677L54.4716 32.7306C54.6508 32.6998 54.8021 32.6441 54.9257 32.5638C55.0554 32.4835 55.1728 32.3723 55.2779 32.2302L55.8802 31.3961H56.1583L56.1305 32.6843H57.1869V32.9716H56.1212V36.1318C56.1212 36.3542 56.1675 36.521 56.2602 36.6322C56.3591 36.7434 56.4795 36.799 56.6216 36.799C56.7452 36.799 56.8564 36.7712 56.9553 36.7156C57.0541 36.6538 57.153 36.5735 57.2518 36.4747L57.3723 36.6137C57.2549 36.8175 57.0912 36.9782 56.8811 37.0956C56.6711 37.2068 56.4116 37.2624 56.1027 37.2624Z" fill="black" />
  <path d="M57.7003 37.1326V36.9473L57.8208 36.9102C58.0432 36.8423 58.1544 36.6878 58.1544 36.4469V31.6742C58.1544 31.5444 58.1328 31.4487 58.0896 31.3869C58.0463 31.3189 57.9629 31.2695 57.8393 31.2386L57.7003 31.2015V31.0254L59.2665 30.627L59.4148 30.7104L59.3777 32.0171V33.2033C59.594 33.0241 59.8287 32.8697 60.082 32.7399C60.3415 32.6102 60.6195 32.5453 60.9161 32.5453C61.3239 32.5453 61.642 32.6596 61.8706 32.8882C62.1054 33.1168 62.2228 33.4689 62.2228 33.9447V36.4561C62.2228 36.5797 62.2475 36.6785 62.2969 36.7527C62.3464 36.8268 62.4329 36.8824 62.5564 36.9195L62.6398 36.9473V37.1326H60.5269V36.9473L60.6381 36.9102C60.8605 36.8484 60.9717 36.694 60.9717 36.4469V33.7686C60.9717 33.5153 60.9285 33.3392 60.842 33.2403C60.7555 33.1415 60.6041 33.0921 60.3879 33.0921C60.2396 33.0921 60.082 33.1199 59.9152 33.1755C59.7546 33.2311 59.5847 33.3238 59.4055 33.4535V36.4654C59.4055 36.589 59.4302 36.6878 59.4797 36.7619C59.5291 36.8361 59.6125 36.8886 59.7299 36.9195L59.8133 36.9473V37.1326H57.7003Z" fill="black" />
  <path d="M65.3292 37.2624C64.872 37.2624 64.4704 37.1666 64.1244 36.9751C63.7846 36.7836 63.519 36.5117 63.3274 36.1596C63.1421 35.8074 63.0494 35.3873 63.0494 34.8992C63.0494 34.4111 63.1483 33.991 63.346 33.6388C63.5498 33.2867 63.8217 33.0179 64.1615 32.8326C64.5075 32.6411 64.8967 32.5453 65.3292 32.5453C65.7617 32.5453 66.1478 32.6411 66.4876 32.8326C66.8336 33.0179 67.1054 33.2867 67.3031 33.6388C67.507 33.9848 67.6089 34.4049 67.6089 34.8992C67.6089 35.3873 67.5132 35.8105 67.3217 36.1688C67.1363 36.521 66.8737 36.7928 66.5339 36.9844C66.1941 37.1697 65.7925 37.2624 65.3292 37.2624ZM65.3292 37.0029C65.5516 37.0029 65.7308 36.9442 65.8667 36.8268C66.0088 36.7033 66.1107 36.4901 66.1725 36.1874C66.2343 35.8846 66.2652 35.4614 66.2652 34.9177C66.2652 34.3679 66.2343 33.9416 66.1725 33.6388C66.1107 33.3299 66.0088 33.1168 65.8667 32.9994C65.7308 32.8758 65.5516 32.8141 65.3292 32.8141C65.1068 32.8141 64.9276 32.8758 64.7917 32.9994C64.6557 33.1168 64.5538 33.3299 64.4858 33.6388C64.4241 33.9416 64.3932 34.3679 64.3932 34.9177C64.3932 35.4614 64.4241 35.8846 64.4858 36.1874C64.5538 36.4901 64.6557 36.7033 64.7917 36.8268C64.9276 36.9442 65.1068 37.0029 65.3292 37.0029Z" fill="black" />
  <path d="M70.3973 37.2624C69.9401 37.2624 69.5385 37.1666 69.1925 36.9751C68.8527 36.7836 68.587 36.5117 68.3955 36.1596C68.2102 35.8074 68.1175 35.3873 68.1175 34.8992C68.1175 34.4111 68.2163 33.991 68.4141 33.6388C68.6179 33.2867 68.8898 33.0179 69.2296 32.8326C69.5756 32.6411 69.9648 32.5453 70.3973 32.5453C70.8297 32.5453 71.2159 32.6411 71.5557 32.8326C71.9017 33.0179 72.1735 33.2867 72.3712 33.6388C72.5751 33.9848 72.677 34.4049 72.677 34.8992C72.677 35.3873 72.5813 35.8105 72.3897 36.1688C72.2044 36.521 71.9418 36.7928 71.602 36.9844C71.2622 37.1697 70.8606 37.2624 70.3973 37.2624ZM70.3973 37.0029C70.6197 37.0029 70.7988 36.9442 70.9348 36.8268C71.0769 36.7033 71.1788 36.4901 71.2406 36.1874C71.3024 35.8846 71.3333 35.4614 71.3333 34.9177C71.3333 34.3679 71.3024 33.9416 71.2406 33.6388C71.1788 33.3299 71.0769 33.1168 70.9348 32.9994C70.7988 32.8758 70.6197 32.8141 70.3973 32.8141C70.1748 32.8141 69.9957 32.8758 69.8598 32.9994C69.7238 33.1168 69.6219 33.3299 69.5539 33.6388C69.4921 33.9416 69.4613 34.3679 69.4613 34.9177C69.4613 35.4614 69.4921 35.8846 69.5539 36.1874C69.6219 36.4901 69.7238 36.7033 69.8598 36.8268C69.9957 36.9442 70.1748 37.0029 70.3973 37.0029Z" fill="black" />
  <path d="M75.0947 37.2624C74.7301 37.2624 74.4027 37.1821 74.1123 37.0214C73.8219 36.8546 73.5933 36.6013 73.4265 36.2615C73.2659 35.9155 73.1856 35.4769 73.1856 34.9455C73.1856 34.4142 73.2783 33.9725 73.4636 33.6203C73.6489 33.262 73.8961 32.9932 74.205 32.8141C74.5139 32.6349 74.8537 32.5453 75.2244 32.5453C75.4468 32.5453 75.66 32.5731 75.8639 32.6287C76.0677 32.6781 76.2469 32.7554 76.4014 32.8604V31.6556C76.4014 31.5259 76.3797 31.4332 76.3365 31.3776C76.2994 31.3158 76.2191 31.2695 76.0955 31.2386L75.9102 31.2015V31.0254L77.5227 30.627L77.6432 30.7104L77.6061 32.0171V36.4747C77.6061 36.592 77.6277 36.6909 77.671 36.7712C77.7142 36.8454 77.7915 36.8979 77.9027 36.9288L78.0046 36.9566V37.1326L76.4662 37.2346L76.3828 36.8454C76.216 36.9751 76.0245 37.077 75.8082 37.1512C75.592 37.2253 75.3541 37.2624 75.0947 37.2624ZM75.6044 36.8361C75.87 36.8361 76.1202 36.7496 76.355 36.5766V33.1291C76.1264 32.987 75.8793 32.916 75.6136 32.916C75.3109 32.916 75.0514 33.0766 74.8352 33.3979C74.6189 33.713 74.5108 34.2227 74.5108 34.927C74.5108 35.6313 74.6128 36.1256 74.8166 36.4098C75.0205 36.694 75.2831 36.8361 75.6044 36.8361Z" fill="black" />
  <path d="M80.6371 34.9826V34.5934H82.954V34.9826H80.6371Z" fill="black" />
  <path d="M84.2706 37.1326L84.178 37.04L87.1806 32.1931H83.5756V31.2386H87.6254V31.841L85.4383 37.1326H84.2706Z" fill="black" />
  <path d="M90.1399 37.2624C89.7754 37.2624 89.4325 37.1604 89.1112 36.9566C88.79 36.7465 88.5305 36.416 88.3328 35.965C88.1351 35.5139 88.0362 34.9239 88.0362 34.1949C88.0362 33.4597 88.1351 32.8666 88.3328 32.4156C88.5305 31.9645 88.79 31.634 89.1112 31.4239C89.4325 31.2139 89.7754 31.1089 90.1399 31.1089C90.5044 31.1089 90.8473 31.2139 91.1686 31.4239C91.4899 31.634 91.7494 31.9645 91.9471 32.4156C92.1448 32.8666 92.2436 33.4597 92.2436 34.1949C92.2436 34.9239 92.1448 35.5139 91.9471 35.965C91.7494 36.416 91.4899 36.7465 91.1686 36.9566C90.8473 37.1604 90.5044 37.2624 90.1399 37.2624ZM90.1399 37.0029C90.3006 37.0029 90.4365 36.9627 90.5477 36.8824C90.6589 36.8021 90.7485 36.6631 90.8164 36.4654C90.8906 36.2615 90.9431 35.9773 90.974 35.6128C91.0111 35.2421 91.0296 34.7695 91.0296 34.1949C91.0296 33.6141 91.0111 33.1415 90.974 32.777C90.9431 32.4063 90.8906 32.119 90.8164 31.9151C90.7485 31.7112 90.6589 31.5691 90.5477 31.4888C90.4365 31.4085 90.3006 31.3683 90.1399 31.3683C89.9855 31.3683 89.8495 31.4085 89.7322 31.4888C89.621 31.563 89.5314 31.702 89.4634 31.9058C89.3954 32.1097 89.3429 32.397 89.3059 32.7677C89.275 33.1384 89.2595 33.6141 89.2595 34.1949C89.2595 34.7695 89.275 35.2421 89.3059 35.6128C89.3429 35.9773 89.3954 36.2615 89.4634 36.4654C89.5314 36.6693 89.621 36.8114 89.7322 36.8917C89.8495 36.9658 89.9855 37.0029 90.1399 37.0029Z" fill="black" />
  <path d="M94.5516 37.3551L94.3107 37.179L98.5088 31.0347L98.7497 31.2108L94.5516 37.3551ZM94.3663 31.1089C94.6072 31.1089 94.8296 31.1768 95.0335 31.3127C95.2436 31.4425 95.4135 31.6495 95.5432 31.9337C95.673 32.2117 95.7378 32.5731 95.7378 33.0179C95.7378 33.4566 95.673 33.818 95.5432 34.1022C95.4135 34.3802 95.2436 34.5872 95.0335 34.7231C94.8296 34.8529 94.6072 34.9177 94.3663 34.9177C94.1253 34.9177 93.8998 34.8529 93.6898 34.7231C93.4859 34.5872 93.3191 34.3802 93.1893 34.1022C93.0596 33.818 92.9947 33.4566 92.9947 33.0179C92.9947 32.5731 93.0596 32.2117 93.1893 31.9337C93.3191 31.6495 93.4859 31.4425 93.6898 31.3127C93.8998 31.1768 94.1253 31.1089 94.3663 31.1089ZM93.838 33.0179C93.838 33.4751 93.8627 33.8273 93.9122 34.0744C93.9616 34.3154 94.0265 34.4822 94.1068 34.5748C94.1871 34.6613 94.2736 34.7046 94.3663 34.7046C94.4651 34.7046 94.5516 34.6613 94.6258 34.5748C94.7061 34.4822 94.7709 34.3154 94.8204 34.0744C94.8698 33.8273 94.8945 33.4751 94.8945 33.0179C94.8945 32.5607 94.8698 32.2117 94.8204 31.9707C94.7709 31.7236 94.7061 31.5568 94.6258 31.4703C94.5516 31.3776 94.4651 31.3313 94.3663 31.3313C94.2736 31.3313 94.1871 31.3776 94.1068 31.4703C94.0265 31.5568 93.9616 31.7205 93.9122 31.9615C93.8627 32.2024 93.838 32.5546 93.838 33.0179ZM98.5922 33.4072C98.8331 33.4072 99.0556 33.4751 99.2594 33.611C99.4695 33.7408 99.6394 33.9478 99.7691 34.232C99.8989 34.51 99.9638 34.8714 99.9638 35.3162C99.9638 35.7549 99.8989 36.1163 99.7691 36.4005C99.6394 36.6785 99.4695 36.8855 99.2594 37.0214C99.0556 37.1512 98.8331 37.216 98.5922 37.216C98.3512 37.216 98.1257 37.1512 97.9157 37.0214C97.7118 36.8855 97.545 36.6785 97.4152 36.4005C97.2855 36.1163 97.2206 35.7549 97.2206 35.3162C97.2206 34.8714 97.2855 34.51 97.4152 34.232C97.545 33.9478 97.7118 33.7408 97.9157 33.611C98.1257 33.4751 98.3512 33.4072 98.5922 33.4072ZM98.064 35.3162C98.064 35.7734 98.0887 36.1256 98.1381 36.3727C98.1875 36.6137 98.2524 36.7805 98.3327 36.8732C98.413 36.9596 98.4995 37.0029 98.5922 37.0029C98.691 37.0029 98.7775 36.9596 98.8517 36.8732C98.932 36.7805 98.9969 36.6137 99.0463 36.3727C99.0957 36.1256 99.1204 35.7734 99.1204 35.3162C99.1204 34.859 99.0957 34.51 99.0463 34.269C98.9969 34.0219 98.932 33.8551 98.8517 33.7686C98.7775 33.6759 98.691 33.6296 98.5922 33.6296C98.4995 33.6296 98.413 33.6759 98.3327 33.7686C98.2524 33.8551 98.1875 34.0188 98.1381 34.2598C98.0887 34.5007 98.064 34.8529 98.064 35.3162Z" fill="black" />
  <path d="M30.5484 53.628V53.197L32.2235 51.3899C32.4598 51.1304 32.6289 50.8941 32.7308 50.6809C32.8374 50.4678 32.8907 50.25 32.8907 50.0276C32.8907 49.4576 32.5594 49.1727 31.8968 49.1727C31.401 49.1727 30.9631 49.358 30.5831 49.7287L30.3677 49.2839C30.5484 49.0985 30.7777 48.9503 31.0558 48.839C31.3384 48.7232 31.635 48.6653 31.9454 48.6653C32.4366 48.6653 32.8119 48.7811 33.0714 49.0128C33.3355 49.2399 33.4676 49.5642 33.4676 49.9859C33.4676 50.2778 33.3958 50.5651 33.2521 50.8477C33.1085 51.1258 32.8884 51.4223 32.5918 51.7374L31.2782 53.1414H33.6692V53.628H30.5484Z" fill="#292929" />
  <path d="M36.1756 53.6905C35.6149 53.6905 35.1886 53.475 34.8967 53.0441C34.6048 52.6132 34.4588 51.9899 34.4588 51.1744C34.4588 50.3543 34.6048 49.731 34.8967 49.3047C35.1886 48.8784 35.6149 48.6653 36.1756 48.6653C36.7409 48.6653 37.1672 48.8784 37.4545 49.3047C37.7464 49.7264 37.8924 50.3473 37.8924 51.1675C37.8924 51.9876 37.7441 52.6132 37.4475 53.0441C37.1556 53.475 36.7316 53.6905 36.1756 53.6905ZM36.1756 53.197C36.5648 53.197 36.8521 53.0325 37.0375 52.7035C37.2274 52.3745 37.3224 51.8625 37.3224 51.1675C37.3224 50.4724 37.2297 49.965 37.0444 49.6453C36.8591 49.3209 36.5695 49.1588 36.1756 49.1588C35.7864 49.1588 35.4968 49.3209 35.3068 49.6453C35.1214 49.9697 35.0288 50.4771 35.0288 51.1675C35.0288 51.8625 35.1214 52.3745 35.3068 52.7035C35.4968 53.0325 35.7864 53.197 36.1756 53.197Z" fill="#292929" />
  <path d="M40.3432 53.6905C39.7825 53.6905 39.3562 53.475 39.0643 53.0441C38.7724 52.6132 38.6264 51.9899 38.6264 51.1744C38.6264 50.3543 38.7724 49.731 39.0643 49.3047C39.3562 48.8784 39.7825 48.6653 40.3432 48.6653C40.9085 48.6653 41.3348 48.8784 41.6221 49.3047C41.914 49.7264 42.06 50.3473 42.06 51.1675C42.06 51.9876 41.9117 52.6132 41.6151 53.0441C41.3232 53.475 40.8992 53.6905 40.3432 53.6905ZM40.3432 53.197C40.7324 53.197 41.0197 53.0325 41.205 52.7035C41.395 52.3745 41.49 51.8625 41.49 51.1675C41.49 50.4724 41.3973 49.965 41.212 49.6453C41.0267 49.3209 40.737 49.1588 40.3432 49.1588C39.954 49.1588 39.6644 49.3209 39.4744 49.6453C39.289 49.9697 39.1963 50.4771 39.1963 51.1675C39.1963 51.8625 39.289 52.3745 39.4744 52.7035C39.6644 53.0325 39.954 53.197 40.3432 53.197Z" fill="#292929" />
  <path d="M45.9345 53.6905C45.1236 53.6905 44.7182 53.2434 44.7182 52.3491V50.25H45.2811V52.3421C45.2811 52.6433 45.3414 52.8657 45.4619 53.0094C45.587 53.153 45.7816 53.2248 46.0457 53.2248C46.333 53.2248 46.567 53.1298 46.7477 52.9399C46.9284 52.7452 47.0188 52.4881 47.0188 52.1683V50.25H47.5818V53.628H47.0327V53.058C46.9261 53.2619 46.7755 53.4194 46.5809 53.5306C46.3909 53.6372 46.1754 53.6905 45.9345 53.6905Z" fill="#292929" />
  <path d="M49.775 53.6905C49.5109 53.6905 49.2606 53.6534 49.0243 53.5793C48.788 53.5052 48.5934 53.4009 48.4405 53.2665L48.6212 52.8703C48.788 53.0047 48.971 53.1043 49.1703 53.1692C49.3742 53.2295 49.5804 53.2596 49.7889 53.2596C50.053 53.2596 50.2523 53.2109 50.3866 53.1136C50.521 53.0163 50.5882 52.8842 50.5882 52.7174C50.5882 52.5877 50.5442 52.4858 50.4561 52.4116C50.3681 52.3328 50.2291 52.2726 50.0391 52.2309L49.4066 52.0919C48.832 51.9668 48.5447 51.6702 48.5447 51.2022C48.5447 50.8964 48.6652 50.6508 48.9062 50.4655C49.1518 50.2801 49.4715 50.1874 49.8653 50.1874C50.097 50.1874 50.3171 50.2245 50.5256 50.2987C50.7388 50.3682 50.9149 50.4724 51.0539 50.6114L50.8662 51.0076C50.7318 50.8825 50.5743 50.7875 50.3936 50.7226C50.2175 50.6531 50.0414 50.6184 49.8653 50.6184C49.6059 50.6184 49.4089 50.6693 49.2745 50.7713C49.1402 50.8732 49.073 51.0076 49.073 51.1744C49.073 51.4339 49.2444 51.6007 49.5873 51.6749L50.2198 51.8069C50.5164 51.8718 50.7411 51.976 50.894 52.1197C51.0469 52.2587 51.1234 52.4487 51.1234 52.6896C51.1234 53.0001 51.0006 53.2457 50.755 53.4264C50.5094 53.6025 50.1827 53.6905 49.775 53.6905Z" fill="#292929" />
  <path d="M53.5036 53.6905C52.9707 53.6905 52.549 53.5353 52.2386 53.2248C51.9281 52.9097 51.7729 52.4834 51.7729 51.9459C51.7729 51.5984 51.8424 51.2926 51.9814 51.0285C52.1204 50.7597 52.3104 50.5535 52.5513 50.4099C52.7969 50.2616 53.0796 50.1874 53.3993 50.1874C53.858 50.1874 54.2171 50.3357 54.4766 50.6323C54.7361 50.9242 54.8659 51.3273 54.8659 51.8417V52.0571H52.322C52.3405 52.4417 52.4517 52.736 52.6556 52.9399C52.8595 53.1391 53.1421 53.2387 53.5036 53.2387C53.7074 53.2387 53.9021 53.2086 54.0874 53.1484C54.2728 53.0835 54.4488 52.9792 54.6156 52.8356L54.8103 53.2318C54.6573 53.3754 54.4627 53.4889 54.2264 53.5724C53.9901 53.6511 53.7491 53.6905 53.5036 53.6905ZM53.4132 50.6045C53.0935 50.6045 52.8409 50.7041 52.6556 50.9034C52.4702 51.1026 52.3614 51.3644 52.3289 51.6888H54.3793C54.3654 51.3459 54.2751 51.0794 54.1083 50.8894C53.9461 50.6995 53.7144 50.6045 53.4132 50.6045Z" fill="#292929" />
  <path d="M55.6806 53.628V50.25H56.2297V50.8547C56.4105 50.4469 56.7811 50.2222 57.3418 50.1805L57.5434 50.1596L57.5851 50.6462L57.2306 50.6879C56.9109 50.7157 56.6676 50.8176 56.5008 50.9937C56.334 51.1652 56.2506 51.4015 56.2506 51.7027V53.628H55.6806Z" fill="#292929" />
  <path d="M59.2776 53.6905C59.0135 53.6905 58.7633 53.6534 58.527 53.5793C58.2907 53.5052 58.0961 53.4009 57.9431 53.2665L58.1239 52.8703C58.2907 53.0047 58.4737 53.1043 58.673 53.1692C58.8768 53.2295 59.083 53.2596 59.2915 53.2596C59.5557 53.2596 59.7549 53.2109 59.8893 53.1136C60.0237 53.0163 60.0909 52.8842 60.0909 52.7174C60.0909 52.5877 60.0468 52.4858 59.9588 52.4116C59.8708 52.3328 59.7317 52.2726 59.5418 52.2309L58.9093 52.0919C58.3347 51.9668 58.0474 51.6702 58.0474 51.2022C58.0474 50.8964 58.1679 50.6508 58.4088 50.4655C58.6544 50.2801 58.9741 50.1874 59.368 50.1874C59.5997 50.1874 59.8198 50.2245 60.0283 50.2987C60.2415 50.3682 60.4175 50.4724 60.5565 50.6114L60.3689 51.0076C60.2345 50.8825 60.077 50.7875 59.8962 50.7226C59.7202 50.6531 59.5441 50.6184 59.368 50.6184C59.1085 50.6184 58.9116 50.6693 58.7772 50.7713C58.6428 50.8732 58.5756 51.0076 58.5756 51.1744C58.5756 51.4339 58.7471 51.6007 59.09 51.6749L59.7225 51.8069C60.019 51.8718 60.2438 51.976 60.3967 52.1197C60.5496 52.2587 60.6261 52.4487 60.6261 52.6896C60.6261 53.0001 60.5033 53.2457 60.2577 53.4264C60.0121 53.6025 59.6854 53.6905 59.2776 53.6905Z" fill="#292929" />
  <path d="M63.2692 54.879V50.25H63.8183V50.8547C63.9202 50.6462 64.0708 50.484 64.2701 50.3682C64.474 50.2477 64.7103 50.1874 64.979 50.1874C65.2802 50.1874 65.542 50.2593 65.7644 50.4029C65.9915 50.5419 66.1653 50.7435 66.2857 51.0076C66.4108 51.2671 66.4734 51.5776 66.4734 51.939C66.4734 52.2958 66.4108 52.6062 66.2857 52.8703C66.1653 53.1298 65.9915 53.3314 65.7644 53.475C65.542 53.6187 65.2802 53.6905 64.979 53.6905C64.7195 53.6905 64.4879 53.6326 64.284 53.5167C64.0801 53.4009 63.9295 53.241 63.8322 53.0372V54.879H63.2692ZM64.8609 53.2387C65.176 53.2387 65.4285 53.1275 65.6185 52.9051C65.8085 52.678 65.9034 52.356 65.9034 51.939C65.9034 51.5173 65.8085 51.1953 65.6185 50.9729C65.4285 50.7504 65.176 50.6392 64.8609 50.6392C64.5458 50.6392 64.2932 50.7504 64.1033 50.9729C63.9133 51.1953 63.8183 51.5173 63.8183 51.939C63.8183 52.356 63.9133 52.678 64.1033 52.9051C64.2932 53.1275 64.5458 53.2387 64.8609 53.2387Z" fill="#292929" />
  <path d="M67.2519 49.409V48.7765H67.947V49.409H67.2519ZM67.3214 53.628V50.25H67.8844V53.628H67.3214Z" fill="#292929" />
  <path d="M70.3687 53.6905C70.0304 53.6905 69.7385 53.6187 69.4929 53.475C69.2473 53.3268 69.0573 53.1206 68.923 52.8564C68.7932 52.5877 68.7284 52.2749 68.7284 51.9181C68.7284 51.3806 68.8743 50.959 69.1662 50.6531C69.4582 50.3427 69.859 50.1874 70.3687 50.1874C70.5772 50.1874 70.7834 50.2245 70.9873 50.2987C71.1912 50.3728 71.3603 50.4771 71.4947 50.6114L71.3 51.0215C71.1657 50.8918 71.0174 50.7968 70.8552 50.7365C70.6977 50.6763 70.5471 50.6462 70.4034 50.6462C70.0513 50.6462 69.7802 50.7574 69.5902 50.9798C69.4002 51.1976 69.3052 51.5127 69.3052 51.9251C69.3052 52.3282 69.4002 52.6479 69.5902 52.8842C69.7802 53.1159 70.0513 53.2318 70.4034 53.2318C70.5471 53.2318 70.6977 53.2017 70.8552 53.1414C71.0174 53.0812 71.1657 52.9839 71.3 52.8495L71.4947 53.2596C71.3603 53.394 71.1888 53.5005 70.9803 53.5793C70.7764 53.6534 70.5726 53.6905 70.3687 53.6905Z" fill="#292929" />
  <path d="M72.1542 53.628V48.7278H72.7172V51.7513H72.7311L74.295 50.25H75.0109L73.3149 51.8764L75.1568 53.628H74.4409L72.7311 52.0432H72.7172V53.628H72.1542Z" fill="#292929" />
  <path d="M77.0634 53.6905C76.5305 53.6905 76.1088 53.5353 75.7984 53.2248C75.4879 52.9097 75.3327 52.4834 75.3327 51.9459C75.3327 51.5984 75.4022 51.2926 75.5412 51.0285C75.6802 50.7597 75.8702 50.5535 76.1112 50.4099C76.3567 50.2616 76.6394 50.1874 76.9591 50.1874C77.4179 50.1874 77.777 50.3357 78.0365 50.6323C78.2959 50.9242 78.4257 51.3273 78.4257 51.8417V52.0571H75.8818C75.9003 52.4417 76.0115 52.736 76.2154 52.9399C76.4193 53.1391 76.702 53.2387 77.0634 53.2387C77.2673 53.2387 77.4619 53.2086 77.6472 53.1484C77.8326 53.0835 78.0087 52.9792 78.1755 52.8356L78.3701 53.2318C78.2172 53.3754 78.0226 53.4889 77.7862 53.5724C77.5499 53.6511 77.309 53.6905 77.0634 53.6905ZM76.973 50.6045C76.6533 50.6045 76.4008 50.7041 76.2154 50.9034C76.0301 51.1026 75.9212 51.3644 75.8887 51.6888H77.9391C77.9252 51.3459 77.8349 51.0794 77.6681 50.8894C77.5059 50.6995 77.2742 50.6045 76.973 50.6045Z" fill="#292929" />
  <path d="M80.5263 53.6905C80.2251 53.6905 79.961 53.6187 79.734 53.475C79.5115 53.3314 79.3378 53.1298 79.2127 52.8703C79.0922 52.6062 79.032 52.2958 79.032 51.939C79.032 51.5776 79.0922 51.2671 79.2127 51.0076C79.3378 50.7435 79.5115 50.5419 79.734 50.4029C79.961 50.2593 80.2251 50.1874 80.5263 50.1874C80.7904 50.1874 81.0221 50.2454 81.2214 50.3612C81.4252 50.4771 81.5758 50.6369 81.6731 50.8408V48.7278H82.2361V53.628H81.6871V53.0094C81.5897 53.2225 81.4392 53.3893 81.2353 53.5098C81.0314 53.6303 80.7951 53.6905 80.5263 53.6905ZM80.6445 53.2387C80.9596 53.2387 81.2121 53.1275 81.4021 52.9051C81.5921 52.678 81.6871 52.356 81.6871 51.939C81.6871 51.5173 81.5921 51.1953 81.4021 50.9729C81.2121 50.7504 80.9596 50.6392 80.6445 50.6392C80.3247 50.6392 80.0699 50.7504 79.8799 50.9729C79.6946 51.1953 79.6019 51.5173 79.6019 51.939C79.6019 52.356 79.6946 52.678 79.8799 52.9051C80.0699 53.1275 80.3247 53.2387 80.6445 53.2387Z" fill="#292929" />
  <path d="M30.3607 59.4548V58.9613C30.3607 58.7713 30.3908 58.5953 30.4511 58.4331C30.5159 58.2709 30.6248 58.111 30.7777 57.9535L31.0488 58.1551C30.9469 58.2663 30.8727 58.3705 30.8264 58.4678C30.7801 58.5605 30.7523 58.6532 30.743 58.7459H31.0697V59.4548H30.3607ZM31.5145 59.4548V58.9613C31.5145 58.7713 31.5446 58.5953 31.6049 58.4331C31.6697 58.2709 31.7786 58.111 31.9315 57.9535L32.2026 58.1551C32.1007 58.2663 32.0265 58.3705 31.9802 58.4678C31.9339 58.5605 31.906 58.6532 31.8968 58.7459H32.2235V59.4548H31.5145Z" fill="#292929" />
  <path d="M33.2629 62.8953V57.9952H35.2021C35.7304 57.9952 36.1335 58.1226 36.4115 58.3775C36.6942 58.6323 36.8355 58.9961 36.8355 59.4687C36.8355 59.9367 36.6942 60.3005 36.4115 60.5599C36.1335 60.8148 35.7304 60.9422 35.2021 60.9422H33.8329V62.8953H33.2629ZM33.8329 60.4626H35.1326C35.8926 60.4626 36.2725 60.1313 36.2725 59.4687C36.2725 58.8015 35.8926 58.4678 35.1326 58.4678H33.8329V60.4626Z" fill="#292929" />
  <path d="M38.4786 62.9579C38.2469 62.9579 38.0384 62.9138 37.8531 62.8258C37.6723 62.7331 37.5287 62.608 37.4221 62.4505C37.3155 62.2929 37.2623 62.1169 37.2623 61.9222C37.2623 61.6767 37.3248 61.482 37.4499 61.3384C37.5797 61.1948 37.7905 61.0928 38.0824 61.0326C38.379 60.9677 38.7821 60.9353 39.2918 60.9353H39.5142V60.7198C39.5142 60.4325 39.454 60.2263 39.3335 60.1012C39.2177 59.9715 39.03 59.9066 38.7705 59.9066C38.5666 59.9066 38.3697 59.9367 38.1797 59.9969C37.9897 60.0526 37.7951 60.1452 37.5959 60.275L37.4013 59.8649C37.5773 59.7398 37.7905 59.6402 38.0407 59.566C38.2956 59.4919 38.5388 59.4548 38.7705 59.4548C39.2061 59.4548 39.5281 59.5614 39.7366 59.7745C39.9498 59.9877 40.0564 60.319 40.0564 60.7685V62.8953H39.5281V62.3115C39.4401 62.5107 39.3034 62.6683 39.118 62.7841C38.9373 62.8999 38.7242 62.9579 38.4786 62.9579ZM38.569 62.5339C38.847 62.5339 39.074 62.4389 39.2501 62.2489C39.4262 62.0543 39.5142 61.8087 39.5142 61.5122V61.3036H39.2988C38.9234 61.3036 38.6269 61.3222 38.4091 61.3592C38.1959 61.3917 38.0454 61.4519 37.9573 61.54C37.8739 61.6234 37.8322 61.7392 37.8322 61.8875C37.8322 62.0775 37.8971 62.2327 38.0268 62.3532C38.1612 62.4736 38.3419 62.5339 38.569 62.5339Z" fill="#292929" />
  <path d="M41.1008 62.8953V59.5174H41.6499V60.1221C41.8307 59.7143 42.2013 59.4896 42.762 59.4479L42.9636 59.427L43.0053 59.9135L42.6508 59.9552C42.3311 59.983 42.0878 60.085 41.921 60.2611C41.7542 60.4325 41.6708 60.6688 41.6708 60.97V62.8953H41.1008Z" fill="#292929" />
  <path d="M45.0733 62.9579C44.5405 62.9579 44.1188 62.8026 43.8083 62.4922C43.4979 62.1771 43.3427 61.7508 43.3427 61.2133C43.3427 60.8658 43.4122 60.5599 43.5512 60.2958C43.6902 60.0271 43.8802 59.8209 44.1211 59.6772C44.3667 59.5289 44.6494 59.4548 44.9691 59.4548C45.4278 59.4548 45.7869 59.6031 46.0464 59.8996C46.3059 60.1916 46.4356 60.5947 46.4356 61.109V61.3245H43.8918C43.9103 61.7091 44.0215 62.0033 44.2254 62.2072C44.4293 62.4065 44.7119 62.5061 45.0733 62.5061C45.2772 62.5061 45.4718 62.476 45.6572 62.4157C45.8425 62.3509 46.0186 62.2466 46.1854 62.103L46.38 62.4991C46.2271 62.6428 46.0325 62.7563 45.7962 62.8397C45.5599 62.9185 45.3189 62.9579 45.0733 62.9579ZM44.983 59.8718C44.6633 59.8718 44.4107 59.9715 44.2254 60.1707C44.04 60.37 43.9311 60.6318 43.8987 60.9561H45.9491C45.9352 60.6132 45.8448 60.3468 45.678 60.1568C45.5159 59.9668 45.2842 59.8718 44.983 59.8718Z" fill="#292929" />
  <path d="M47.2504 62.8953V59.5174H47.7995V60.0943C47.9107 59.8811 48.0683 59.7212 48.2722 59.6147C48.476 59.5081 48.7054 59.4548 48.9603 59.4548C49.7619 59.4548 50.1627 59.8996 50.1627 60.7893V62.8953H49.5997V60.8241C49.5997 60.509 49.5371 60.2796 49.412 60.136C49.2916 59.9877 49.0969 59.9135 48.8282 59.9135C48.5177 59.9135 48.2698 60.0108 48.0845 60.2055C47.9038 60.3954 47.8134 60.6503 47.8134 60.97V62.8953H47.2504Z" fill="#292929" />
  <path d="M52.5562 62.9579C52.1577 62.9579 51.8588 62.8536 51.6596 62.6451C51.4603 62.4319 51.3607 62.1261 51.3607 61.7276V59.9552H50.7004V59.5174H51.3607V58.4817H51.9237V59.5174H52.9941V59.9552H51.9237V61.672C51.9237 61.9361 51.9793 62.1377 52.0905 62.2767C52.2017 62.4111 52.3824 62.4783 52.6326 62.4783C52.7068 62.4783 52.7809 62.469 52.855 62.4505C52.9292 62.4319 52.9964 62.4134 53.0566 62.3949L53.1539 62.8258C53.0937 62.8582 53.0056 62.8884 52.8898 62.9162C52.774 62.944 52.6627 62.9579 52.5562 62.9579Z" fill="#292929" />
  <path d="M53.6308 62.8953V57.9952H54.1938V60.0734C54.305 59.8695 54.4602 59.7166 54.6595 59.6147C54.8633 59.5081 55.0904 59.4548 55.3406 59.4548C56.1422 59.4548 56.5431 59.8996 56.5431 60.7893V62.8953H55.9801V60.8241C55.9801 60.509 55.9175 60.2796 55.7924 60.136C55.6719 59.9877 55.4773 59.9135 55.2086 59.9135C54.8981 59.9135 54.6502 60.0108 54.4648 60.2055C54.2841 60.3954 54.1938 60.6503 54.1938 60.97V62.8953H53.6308Z" fill="#292929" />
  <path d="M58.9852 62.9579C58.6562 62.9579 58.3712 62.886 58.1303 62.7424C57.8893 62.5988 57.7017 62.3972 57.5673 62.1377C57.4375 61.8736 57.3727 61.5631 57.3727 61.2063C57.3727 60.8495 57.4375 60.5414 57.5673 60.2819C57.7017 60.0178 57.8893 59.8139 58.1303 59.6703C58.3712 59.5266 58.6562 59.4548 58.9852 59.4548C59.3095 59.4548 59.5922 59.5266 59.8331 59.6703C60.0787 59.8139 60.2664 60.0178 60.3961 60.2819C60.5305 60.5414 60.5977 60.8495 60.5977 61.2063C60.5977 61.5631 60.5305 61.8736 60.3961 62.1377C60.2664 62.3972 60.0787 62.5988 59.8331 62.7424C59.5922 62.886 59.3095 62.9579 58.9852 62.9579ZM58.9852 62.5061C59.3003 62.5061 59.5528 62.3949 59.7428 62.1725C59.9328 61.9454 60.0278 61.6234 60.0278 61.2063C60.0278 60.7847 59.9328 60.4626 59.7428 60.2402C59.5528 60.0178 59.3003 59.9066 58.9852 59.9066C58.6655 59.9066 58.4106 60.0178 58.2206 60.2402C58.0353 60.4626 57.9426 60.7847 57.9426 61.2063C57.9426 61.6234 58.0353 61.9454 58.2206 62.1725C58.4106 62.3949 58.6655 62.5061 58.9852 62.5061Z" fill="#292929" />
  <path d="M62.8473 62.9579C62.5183 62.9579 62.2334 62.886 61.9924 62.7424C61.7515 62.5988 61.5638 62.3972 61.4294 62.1377C61.2997 61.8736 61.2348 61.5631 61.2348 61.2063C61.2348 60.8495 61.2997 60.5414 61.4294 60.2819C61.5638 60.0178 61.7515 59.8139 61.9924 59.6703C62.2334 59.5266 62.5183 59.4548 62.8473 59.4548C63.1717 59.4548 63.4544 59.5266 63.6953 59.6703C63.9409 59.8139 64.1286 60.0178 64.2583 60.2819C64.3927 60.5414 64.4599 60.8495 64.4599 61.2063C64.4599 61.5631 64.3927 61.8736 64.2583 62.1377C64.1286 62.3972 63.9409 62.5988 63.6953 62.7424C63.4544 62.886 63.1717 62.9579 62.8473 62.9579ZM62.8473 62.5061C63.1624 62.5061 63.415 62.3949 63.6049 62.1725C63.7949 61.9454 63.8899 61.6234 63.8899 61.2063C63.8899 60.7847 63.7949 60.4626 63.6049 60.2402C63.415 60.0178 63.1624 59.9066 62.8473 59.9066C62.5276 59.9066 62.2728 60.0178 62.0828 60.2402C61.8974 60.4626 61.8048 60.7847 61.8048 61.2063C61.8048 61.6234 61.8974 61.9454 62.0828 62.1725C62.2728 62.3949 62.5276 62.5061 62.8473 62.5061Z" fill="#292929" />
  <path d="M66.5913 62.9579C66.2901 62.9579 66.026 62.886 65.799 62.7424C65.5766 62.5988 65.4028 62.3972 65.2777 62.1377C65.1572 61.8736 65.097 61.5631 65.097 61.2063C65.097 60.8449 65.1572 60.5345 65.2777 60.275C65.4028 60.0108 65.5766 59.8093 65.799 59.6703C66.026 59.5266 66.2901 59.4548 66.5913 59.4548C66.8555 59.4548 67.0871 59.5127 67.2864 59.6286C67.4903 59.7444 67.6409 59.9043 67.7382 60.1082V57.9952H68.3012V62.8953H67.7521V62.2767C67.6548 62.4899 67.5042 62.6567 67.3003 62.7772C67.0964 62.8976 66.8601 62.9579 66.5913 62.9579ZM66.7095 62.5061C67.0246 62.5061 67.2771 62.3949 67.4671 62.1725C67.6571 61.9454 67.7521 61.6234 67.7521 61.2063C67.7521 60.7847 67.6571 60.4626 67.4671 60.2402C67.2771 60.0178 67.0246 59.9066 66.7095 59.9066C66.3898 59.9066 66.1349 60.0178 65.9449 60.2402C65.7596 60.4626 65.6669 60.7847 65.6669 61.2063C65.6669 61.6234 65.7596 61.9454 65.9449 62.1725C66.1349 62.3949 66.3898 62.5061 66.7095 62.5061Z" fill="#292929" />
  <path d="M72.2063 62.9579C71.9746 62.9579 71.7661 62.9138 71.5807 62.8258C71.4 62.7331 71.2564 62.608 71.1498 62.4505C71.0432 62.2929 70.9899 62.1169 70.9899 61.9222C70.9899 61.6767 71.0525 61.482 71.1776 61.3384C71.3073 61.1948 71.5182 61.0928 71.8101 61.0326C72.1066 60.9677 72.5098 60.9353 73.0195 60.9353H73.2419V60.7198C73.2419 60.4325 73.1817 60.2263 73.0612 60.1012C72.9453 59.9715 72.7577 59.9066 72.4982 59.9066C72.2943 59.9066 72.0974 59.9367 71.9074 59.9969C71.7174 60.0526 71.5228 60.1452 71.3236 60.275L71.1289 59.8649C71.305 59.7398 71.5182 59.6402 71.7684 59.566C72.0232 59.4919 72.2665 59.4548 72.4982 59.4548C72.9338 59.4548 73.2558 59.5614 73.4643 59.7745C73.6775 59.9877 73.784 60.319 73.784 60.7685V62.8953H73.2558V62.3115C73.1678 62.5107 73.0311 62.6683 72.8457 62.7841C72.665 62.8999 72.4519 62.9579 72.2063 62.9579ZM72.2966 62.5339C72.5746 62.5339 72.8017 62.4389 72.9778 62.2489C73.1539 62.0543 73.2419 61.8087 73.2419 61.5122V61.3036H73.0264C72.6511 61.3036 72.3545 61.3222 72.1368 61.3592C71.9236 61.3917 71.773 61.4519 71.685 61.54C71.6016 61.6234 71.5599 61.7392 71.5599 61.8875C71.5599 62.0775 71.6247 62.2327 71.7545 62.3532C71.8889 62.4736 72.0696 62.5339 72.2966 62.5339Z" fill="#292929" />
  <path d="M75.9684 62.9579C75.7043 62.9579 75.4541 62.9208 75.2177 62.8467C74.9814 62.7725 74.7868 62.6683 74.6339 62.5339L74.8146 62.1377C74.9814 62.2721 75.1645 62.3717 75.3637 62.4366C75.5676 62.4968 75.7738 62.5269 75.9823 62.5269C76.2464 62.5269 76.4457 62.4783 76.58 62.381C76.7144 62.2837 76.7816 62.1516 76.7816 61.9848C76.7816 61.8551 76.7376 61.7531 76.6496 61.679C76.5615 61.6002 76.4225 61.54 76.2325 61.4983L75.6 61.3592C75.0254 61.2341 74.7382 60.9376 74.7382 60.4696C74.7382 60.1638 74.8586 59.9182 75.0996 59.7328C75.3452 59.5475 75.6649 59.4548 76.0588 59.4548C76.2904 59.4548 76.5105 59.4919 76.7191 59.566C76.9322 59.6355 77.1083 59.7398 77.2473 59.8788L77.0596 60.275C76.9253 60.1499 76.7677 60.0549 76.587 59.99C76.4109 59.9205 76.2348 59.8857 76.0588 59.8857C75.7993 59.8857 75.6023 59.9367 75.468 60.0387C75.3336 60.1406 75.2664 60.275 75.2664 60.4418C75.2664 60.7013 75.4378 60.8681 75.7807 60.9422L76.4132 61.0743C76.7098 61.1391 76.9345 61.2434 77.0874 61.3871C77.2403 61.5261 77.3168 61.716 77.3168 61.957C77.3168 62.2674 77.194 62.513 76.9484 62.6937C76.7028 62.8698 76.3762 62.9579 75.9684 62.9579Z" fill="#292929" />
  <path d="M81.0234 62.9579C80.7917 62.9579 80.5832 62.9138 80.3978 62.8258C80.2171 62.7331 80.0735 62.608 79.9669 62.4505C79.8603 62.2929 79.807 62.1169 79.807 61.9222C79.807 61.6767 79.8696 61.482 79.9947 61.3384C80.1245 61.1948 80.3353 61.0928 80.6272 61.0326C80.9238 60.9677 81.3269 60.9353 81.8366 60.9353H82.059V60.7198C82.059 60.4325 81.9988 60.2263 81.8783 60.1012C81.7625 59.9715 81.5748 59.9066 81.3153 59.9066C81.1114 59.9066 80.9145 59.9367 80.7245 59.9969C80.5345 60.0526 80.3399 60.1452 80.1407 60.275L79.9461 59.8649C80.1221 59.7398 80.3353 59.6402 80.5855 59.566C80.8404 59.4919 81.0836 59.4548 81.3153 59.4548C81.7509 59.4548 82.0729 59.5614 82.2814 59.7745C82.4946 59.9877 82.6012 60.319 82.6012 60.7685V62.8953H82.0729V62.3115C81.9849 62.5107 81.8482 62.6683 81.6628 62.7841C81.4821 62.8999 81.269 62.9579 81.0234 62.9579ZM81.1137 62.5339C81.3918 62.5339 81.6188 62.4389 81.7949 62.2489C81.971 62.0543 82.059 61.8087 82.059 61.5122V61.3036H81.8435C81.4682 61.3036 81.1717 61.3222 80.9539 61.3592C80.7407 61.3917 80.5901 61.4519 80.5021 61.54C80.4187 61.6234 80.377 61.7392 80.377 61.8875C80.377 62.0775 80.4419 62.2327 80.5716 62.3532C80.706 62.4736 80.8867 62.5339 81.1137 62.5339Z" fill="#292929" />
  <path d="M86.7861 62.9579C86.3876 62.9579 86.0888 62.8536 85.8895 62.6451C85.6903 62.4319 85.5906 62.1261 85.5906 61.7276V59.9552H84.9303V59.5174H85.5906V58.4817H86.1536V59.5174H87.224V59.9552H86.1536V61.672C86.1536 61.9361 86.2092 62.1377 86.3204 62.2767C86.4316 62.4111 86.6124 62.4783 86.8626 62.4783C86.9367 62.4783 87.0109 62.469 87.085 62.4505C87.1591 62.4319 87.2263 62.4134 87.2866 62.3949L87.3839 62.8258C87.3236 62.8582 87.2356 62.8884 87.1198 62.9162C87.0039 62.944 86.8927 62.9579 86.7861 62.9579Z" fill="#292929" />
  <path d="M89.2308 62.9579C88.9018 62.9579 88.6168 62.886 88.3759 62.7424C88.1349 62.5988 87.9473 62.3972 87.8129 62.1377C87.6832 61.8736 87.6183 61.5631 87.6183 61.2063C87.6183 60.8495 87.6832 60.5414 87.8129 60.2819C87.9473 60.0178 88.1349 59.8139 88.3759 59.6703C88.6168 59.5266 88.9018 59.4548 89.2308 59.4548C89.5552 59.4548 89.8378 59.5266 90.0788 59.6703C90.3244 59.8139 90.512 60.0178 90.6418 60.2819C90.7761 60.5414 90.8433 60.8495 90.8433 61.2063C90.8433 61.5631 90.7761 61.8736 90.6418 62.1377C90.512 62.3972 90.3244 62.5988 90.0788 62.7424C89.8378 62.886 89.5552 62.9579 89.2308 62.9579ZM89.2308 62.5061C89.5459 62.5061 89.7984 62.3949 89.9884 62.1725C90.1784 61.9454 90.2734 61.6234 90.2734 61.2063C90.2734 60.7847 90.1784 60.4626 89.9884 60.2402C89.7984 60.0178 89.5459 59.9066 89.2308 59.9066C88.9111 59.9066 88.6562 60.0178 88.4663 60.2402C88.2809 60.4626 88.1882 60.7847 88.1882 61.2063C88.1882 61.6234 88.2809 61.9454 88.4663 62.1725C88.6562 62.3949 88.9111 62.5061 89.2308 62.5061Z" fill="#292929" />
  <path d="M91.689 64.1464V59.5174H92.238V60.1221C92.34 59.9135 92.4906 59.7514 92.6898 59.6355C92.8937 59.515 93.13 59.4548 93.3988 59.4548C93.7 59.4548 93.9618 59.5266 94.1842 59.6703C94.4112 59.8093 94.585 60.0108 94.7055 60.275C94.8306 60.5345 94.8931 60.8449 94.8931 61.2063C94.8931 61.5631 94.8306 61.8736 94.7055 62.1377C94.585 62.3972 94.4112 62.5988 94.1842 62.7424C93.9618 62.886 93.7 62.9579 93.3988 62.9579C93.1393 62.9579 92.9076 62.8999 92.7037 62.7841C92.4999 62.6683 92.3493 62.5084 92.252 62.3045V64.1464H91.689ZM93.2806 62.5061C93.5957 62.5061 93.8483 62.3949 94.0382 62.1725C94.2282 61.9454 94.3232 61.6234 94.3232 61.2063C94.3232 60.7847 94.2282 60.4626 94.0382 60.2402C93.8483 60.0178 93.5957 59.9066 93.2806 59.9066C92.9655 59.9066 92.713 60.0178 92.523 60.2402C92.333 60.4626 92.238 60.7847 92.238 61.2063C92.238 61.6234 92.333 61.9454 92.523 62.1725C92.713 62.3949 92.9655 62.5061 93.2806 62.5061Z" fill="#292929" />
  <path d="M95.6717 58.6763V58.0439H96.3667V58.6763H95.6717ZM95.7412 62.8953V59.5174H96.3042V62.8953H95.7412Z" fill="#292929" />
  <path d="M98.7884 62.9579C98.4502 62.9579 98.1582 62.886 97.9127 62.7424C97.6671 62.5941 97.4771 62.3879 97.3427 62.1238C97.213 61.8551 97.1481 61.5423 97.1481 61.1855C97.1481 60.648 97.2941 60.2263 97.586 59.9205C97.8779 59.61 98.2787 59.4548 98.7884 59.4548C98.9969 59.4548 99.2031 59.4919 99.407 59.566C99.6109 59.6402 99.78 59.7444 99.9144 59.8788L99.7198 60.2889C99.5854 60.1591 99.4371 60.0641 99.275 60.0039C99.1174 59.9437 98.9668 59.9135 98.8232 59.9135C98.471 59.9135 98.1999 60.0247 98.01 60.2472C97.82 60.4649 97.725 60.78 97.725 61.1924C97.725 61.5956 97.82 61.9153 98.01 62.1516C98.1999 62.3833 98.471 62.4991 98.8232 62.4991C98.9668 62.4991 99.1174 62.469 99.275 62.4088C99.4371 62.3485 99.5854 62.2512 99.7198 62.1169L99.9144 62.5269C99.78 62.6613 99.6086 62.7679 99.4001 62.8467C99.1962 62.9208 98.9923 62.9579 98.7884 62.9579Z" fill="#292929" />
  <path d="M103.763 62.9579C103.434 62.9579 103.149 62.886 102.908 62.7424C102.667 62.5988 102.48 62.3972 102.345 62.1377C102.215 61.8736 102.151 61.5631 102.151 61.2063C102.151 60.8495 102.215 60.5414 102.345 60.2819C102.48 60.0178 102.667 59.8139 102.908 59.6703C103.149 59.5266 103.434 59.4548 103.763 59.4548C104.087 59.4548 104.37 59.5266 104.611 59.6703C104.857 59.8139 105.044 60.0178 105.174 60.2819C105.308 60.5414 105.376 60.8495 105.376 61.2063C105.376 61.5631 105.308 61.8736 105.174 62.1377C105.044 62.3972 104.857 62.5988 104.611 62.7424C104.37 62.886 104.087 62.9579 103.763 62.9579ZM103.763 62.5061C104.078 62.5061 104.331 62.3949 104.521 62.1725C104.711 61.9454 104.806 61.6234 104.806 61.2063C104.806 60.7847 104.711 60.4626 104.521 60.2402C104.331 60.0178 104.078 59.9066 103.763 59.9066C103.443 59.9066 103.189 60.0178 102.999 60.2402C102.813 60.4626 102.721 60.7847 102.721 61.2063C102.721 61.6234 102.813 61.9454 102.999 62.1725C103.189 62.3949 103.443 62.5061 103.763 62.5061Z" fill="#292929" />
  <path d="M106.368 62.8953V59.9552H105.701V59.5174H106.368V59.3992C106.368 58.9497 106.479 58.6092 106.702 58.3775C106.929 58.1458 107.276 58.016 107.744 57.9882L108.015 57.9743L108.064 58.4053L107.744 58.4261C107.457 58.4493 107.248 58.535 107.119 58.6833C106.994 58.8316 106.931 59.047 106.931 59.3297V59.5174H107.904V59.9552H106.931V62.8953H106.368Z" fill="#292929" />
  <path d="M30.3816 67.9437V67.3112H31.0766V67.9437H30.3816ZM30.4511 72.1627V68.7847H31.0141V72.1627H30.4511Z" fill="#292929" />
  <path d="M32.0665 72.1627V68.7847H32.6156V69.3616C32.7268 69.1485 32.8844 68.9886 33.0883 68.882C33.2921 68.7755 33.5215 68.7222 33.7764 68.7222C34.578 68.7222 34.9788 69.167 34.9788 70.0567V72.1627H34.4158V70.0914C34.4158 69.7763 34.3532 69.547 34.2281 69.4033C34.1077 69.255 33.913 69.1809 33.6443 69.1809C33.3338 69.1809 33.0859 69.2782 32.9006 69.4728C32.7199 69.6628 32.6295 69.9177 32.6295 70.2374V72.1627H32.0665Z" fill="#292929" />
  <path d="M37.3723 72.2252C36.9738 72.2252 36.6749 72.121 36.4757 71.9125C36.2764 71.6993 36.1768 71.3935 36.1768 70.995V69.2226H35.5165V68.7847H36.1768V67.7491H36.7398V68.7847H37.8102V69.2226H36.7398V70.9394C36.7398 71.2035 36.7954 71.4051 36.9066 71.5441C37.0178 71.6785 37.1985 71.7456 37.4487 71.7456C37.5229 71.7456 37.597 71.7364 37.6711 71.7178C37.7453 71.6993 37.8125 71.6808 37.8727 71.6622L37.97 72.0932C37.9098 72.1256 37.8217 72.1557 37.7059 72.1835C37.5901 72.2113 37.4788 72.2252 37.3723 72.2252Z" fill="#292929" />
  <path d="M39.9351 72.2252C39.4022 72.2252 38.9806 72.07 38.6701 71.7595C38.3597 71.4445 38.2044 71.0182 38.2044 70.4806C38.2044 70.1331 38.2739 69.8273 38.4129 69.5632C38.552 69.2944 38.7419 69.0882 38.9829 68.9446C39.2285 68.7963 39.5111 68.7222 39.8309 68.7222C40.2896 68.7222 40.6487 68.8704 40.9082 69.167C41.1677 69.4589 41.2974 69.8621 41.2974 70.3764V70.5919H38.7535C38.7721 70.9764 38.8833 71.2707 39.0871 71.4746C39.291 71.6738 39.5737 71.7734 39.9351 71.7734C40.139 71.7734 40.3336 71.7433 40.519 71.6831C40.7043 71.6182 40.8804 71.514 41.0472 71.3703L41.2418 71.7665C41.0889 71.9101 40.8943 72.0237 40.658 72.1071C40.4216 72.1858 40.1807 72.2252 39.9351 72.2252ZM39.8448 69.1392C39.525 69.1392 39.2725 69.2388 39.0871 69.4381C38.9018 69.6373 38.7929 69.8991 38.7605 70.2235H40.8109C40.797 69.8806 40.7066 69.6141 40.5398 69.4242C40.3776 69.2342 40.1459 69.1392 39.8448 69.1392Z" fill="#292929" />
  <path d="M42.1122 72.1627V68.7847H42.6613V69.3894C42.842 68.9816 43.2127 68.7569 43.7734 68.7152L43.9749 68.6944L44.0166 69.1809L43.6622 69.2226C43.3424 69.2504 43.0992 69.3523 42.9324 69.5284C42.7655 69.6999 42.6821 69.9362 42.6821 70.2374V72.1627H42.1122Z" fill="#292929" />
  <path d="M46.0847 72.2252C45.5518 72.2252 45.1302 72.07 44.8197 71.7595C44.5092 71.4445 44.354 71.0182 44.354 70.4806C44.354 70.1331 44.4235 69.8273 44.5625 69.5632C44.7015 69.2944 44.8915 69.0882 45.1325 68.9446C45.3781 68.7963 45.6607 68.7222 45.9804 68.7222C46.4392 68.7222 46.7983 68.8704 47.0578 69.167C47.3173 69.4589 47.447 69.8621 47.447 70.3764V70.5919H44.9031C44.9216 70.9764 45.0328 71.2707 45.2367 71.4746C45.4406 71.6738 45.7233 71.7734 46.0847 71.7734C46.2886 71.7734 46.4832 71.7433 46.6685 71.6831C46.8539 71.6182 47.03 71.514 47.1968 71.3703L47.3914 71.7665C47.2385 71.9101 47.0439 72.0237 46.8075 72.1071C46.5712 72.1858 46.3303 72.2252 46.0847 72.2252ZM45.9943 69.1392C45.6746 69.1392 45.4221 69.2388 45.2367 69.4381C45.0514 69.6373 44.9425 69.8991 44.9101 70.2235H46.9605C46.9466 69.8806 46.8562 69.6141 46.6894 69.4242C46.5272 69.2342 46.2955 69.1392 45.9943 69.1392Z" fill="#292929" />
  <path d="M49.4017 72.2252C49.1375 72.2252 48.8873 72.1882 48.651 72.114C48.4147 72.0399 48.2201 71.9356 48.0672 71.8012L48.2479 71.4051C48.4147 71.5394 48.5977 71.6391 48.797 71.7039C49.0009 71.7642 49.2071 71.7943 49.4156 71.7943C49.6797 71.7943 49.8789 71.7456 50.0133 71.6483C50.1477 71.551 50.2149 71.419 50.2149 71.2522C50.2149 71.1224 50.1709 71.0205 50.0828 70.9463C49.9948 70.8676 49.8558 70.8073 49.6658 70.7656L49.0333 70.6266C48.4587 70.5015 48.1714 70.2049 48.1714 69.7369C48.1714 69.4311 48.2919 69.1855 48.5329 69.0002C48.7784 68.8148 49.0982 68.7222 49.492 68.7222C49.7237 68.7222 49.9438 68.7592 50.1523 68.8334C50.3655 68.9029 50.5416 69.0071 50.6806 69.1461L50.4929 69.5423C50.3585 69.4172 50.201 69.3222 50.0203 69.2574C49.8442 69.1879 49.6681 69.1531 49.492 69.1531C49.2325 69.1531 49.0356 69.2041 48.9012 69.306C48.7669 69.4079 48.6997 69.5423 48.6997 69.7091C48.6997 69.9686 48.8711 70.1354 49.214 70.2096L49.8465 70.3416C50.1431 70.4065 50.3678 70.5108 50.5207 70.6544C50.6736 70.7934 50.7501 70.9834 50.7501 71.2244C50.7501 71.5348 50.6273 71.7804 50.3817 71.9611C50.1361 72.1372 49.8094 72.2252 49.4017 72.2252Z" fill="#292929" />
  <path d="M52.9295 72.2252C52.531 72.2252 52.2321 72.121 52.0329 71.9125C51.8336 71.6993 51.734 71.3935 51.734 70.995V69.2226H51.0737V68.7847H51.734V67.7491H52.297V68.7847H53.3674V69.2226H52.297V70.9394C52.297 71.2035 52.3526 71.4051 52.4638 71.5441C52.575 71.6785 52.7557 71.7456 53.0059 71.7456C53.0801 71.7456 53.1542 71.7364 53.2284 71.7178C53.3025 71.6993 53.3697 71.6808 53.4299 71.6622L53.5272 72.0932C53.467 72.1256 53.379 72.1557 53.2631 72.1835C53.1473 72.2113 53.0361 72.2252 52.9295 72.2252Z" fill="#292929" />
  <path d="M54.1717 68.7708L53.9146 68.5623C54.0165 68.4557 54.0883 68.3561 54.13 68.2634C54.1764 68.1661 54.2042 68.0688 54.2134 67.9715H53.8868V67.2626H54.5957V67.763C54.5957 67.953 54.5656 68.1291 54.5054 68.2912C54.4451 68.4534 54.3339 68.6133 54.1717 68.7708ZM55.3255 68.7708L55.0683 68.5623C55.1703 68.4557 55.2421 68.3561 55.2838 68.2634C55.3302 68.1661 55.358 68.0688 55.3672 67.9715H55.0405V67.2626H55.7495V67.763C55.7495 67.953 55.7194 68.1291 55.6591 68.2912C55.5989 68.4534 55.4877 68.6133 55.3255 68.7708Z" fill="#292929" />
  <path fill-rule="evenodd" clip-rule="evenodd" d="M29.7811 43.4898C29.7811 43.4098 29.846 43.345 29.9259 43.345H106.395C106.475 43.345 106.54 43.4098 106.54 43.4898C106.54 43.5697 106.475 43.6346 106.395 43.6346H29.9259C29.846 43.6346 29.7811 43.5697 29.7811 43.4898Z" fill="#E4E4E4" />
  <defs>
    <filter id="filter0_d_2_2254" x="10.5273" y="10" width="124.989" height="93.7078" filterUnits="userSpaceOnUse" color-interpolation-filters="sRGB">
      <feFlood flood-opacity="0" result="BackgroundImageFix" />
      <feColorMatrix in="SourceAlpha" type="matrix" values="0 0 0 0 0 0 0 0 0 0 0 0 0 0 0 0 0 0 127 0" result="hardAlpha" />
      <feOffset />
      <feGaussianBlur stdDeviation="5" />
      <feColorMatrix type="matrix" values="0 0 0 0 0 0 0 0 0 0 0 0 0 0 0 0 0 0 0.15 0" />
      <feBlend mode="normal" in2="BackgroundImageFix" result="effect1_dropShadow_2_2254" />
      <feBlend mode="normal" in="SourceGraphic" in2="effect1_dropShadow_2_2254" result="shape" />
    </filter>
    <filter id="filter1_d_2_2254" x="0.527344" y="0" width="144.989" height="113.708" filterUnits="userSpaceOnUse" color-interpolation-filters="sRGB">
      <feFlood flood-opacity="0" result="BackgroundImageFix" />
      <feColorMatrix in="SourceAlpha" type="matrix" values="0 0 0 0 0 0 0 0 0 0 0 0 0 0 0 0 0 0 127 0" result="hardAlpha" />
      <feOffset />
      <feGaussianBlur stdDeviation="10" />
      <feColorMatrix type="matrix" values="0 0 0 0 0 0 0 0 0 0 0 0 0 0 0 0 0 0 0.15 0" />
      <feBlend mode="normal" in2="BackgroundImageFix" result="effect1_dropShadow_2_2254" />
      <feBlend mode="normal" in="SourceGraphic" in2="effect1_dropShadow_2_2254" result="shape" />
    </filter>
  </defs>
</svg>
  